<?xml version="1.0" encoding="utf-8"?>
<svg viewBox="1.25 0 494.167 21.287" id="bottom-line-tech" xmlns="http://www.w3.org/2000/svg">
  <path d="M 438.404 7.9 C 462.834 7.867 483.673 6.803 488.817 7.9 C 490.223 8.2 490.071 8.441 490.421 9.046 C 490.848 9.784 491.066 11.414 490.879 12.254 C 490.726 12.943 491.793 13.368 489.733 13.858 C 472.166 18.037 107.339 18.172 70.849 16.608 C 62.904 16.267 66.661 15.539 61.684 15.233 C 51.638 14.615 13.474 16.711 8.063 15.233 C 6.536 14.816 6.637 14.409 6.459 13.629 C 6.224 12.603 5.5 10.354 7.604 9.275 C 13.387 6.31 53.784 8.214 63.975 8.817 C 68.827 9.104 67.032 9.857 72.683 10.192 C 87.981 11.098 148.133 10.59 179.008 10.192 C 204.805 9.859 216.452 8.767 246.836 8.359 C 292.856 7.74 396.734 7.957 438.404 7.9 Z" style="fill: rgb(255, 255, 255); stroke: rgb(255, 255, 255); stroke-width: 0px;"/>
</svg>