<svg xmlns="http://www.w3.org/2000/svg" preserveAspectRatio="none" width="220" id="btn-transparent" height="62" fill="none">
  <path stroke="#fff" stroke-width="2" d="M9.706 7.555l4.746-1.78c2.649-1.612 7.197-2.641 13.066-3.228 5.825-.582 12.79-.715 20.154-.637 6.765.072 13.841.322 20.65.563l1.793.063c7.343.259 14.318.487 20.139.439 7.706-.063 16.046-.207 24.683-.356 24.665-.424 51.75-.89 73.399.354 7.896.454 13.367.978 17.209 1.644 3.862.67 5.951 1.465 7.184 2.376 1.173.865 1.664 1.902 2.128 3.413.104.339.207.704.317 1.093.377 1.34.835 2.97 1.704 4.803 3.348 7.066 2.052 14.403.728 21.894-.193 1.124-.347 2.523-.479 3.81-.11 1.13-.229 2.225-.458 3.304-.451 2.124-1.331 4.184-3.443 6.127v0c-3.715 3.418-9.889 5.28-18.455 6.24-8.531.954-19.213.995-31.765.95-12.602-.046-27.178.452-42.35.97-9.196.313-18.61.635-27.938.847-24.77.564-48.95.362-67.073-2.74-12.95-2.218-18.707-6.272-21.285-10.43-2.373-3.827-2.21-7.932-2.065-11.537.014-.355.028-.704.04-1.048v0c.073-2.255-.288-4.628-.641-6.946l-.004-.026C1.332 25.374.98 23.07 1 20.795c.02-2.264.41-4.452 1.517-6.535 1.096-2.063 2.932-4.091 5.95-5.998a1.213 1.213 0 00.163-.078l1.076-.63m0 0l-.02-.02m.02.02l-.02-.02m0 0c.351-.136.767-.285 1.214-.44l.946-.323c.39-.133.776-.264 1.108-.38.31-.11.601-.215.845-.311.224-.09.47-.194.653-.305z"/>
</svg>
