<?xml version="1.0" encoding="utf-8"?>
<svg viewBox="0 0 489.575 137.272" id="button-stroke" xmlns="http://www.w3.org/2000/svg">
  <path d="M 48.199 2.645 C 59.518 1.827 79.413 2.309 93.054 2.645 C 105.155 2.944 118.326 3.47 126.264 4.334 C 131.517 4.906 130.021 5.922 137.909 6.445 C 160.803 7.964 269.687 7.735 307.843 6.445 C 331.104 5.658 335.789 3.391 357.01 2.645 C 387.374 1.578 466.147 -0.11 477.776 2.645 C 480.832 3.369 480.031 3.989 481.01 5.389 C 482.345 7.3 483.578 9.383 484.46 13.833 C 486.066 21.93 487.451 39.15 486.616 54.366 C 485.631 72.382 480.527 106.132 477.129 115.587 C 475.662 119.663 474.869 120.014 472.599 121.709 C 469.842 123.768 465.13 125.169 460.954 126.353 C 456.539 127.606 452.821 128.268 446.721 128.887 C 438.171 129.754 422.724 129.309 413.079 130.153 C 405.107 130.85 403.718 132.401 392.377 133.109 C 369.157 134.556 287.415 135.029 266.868 133.953 C 258.126 133.496 259.443 132.288 252.204 131.842 C 239.617 131.065 205.829 131.077 193.116 131.842 C 185.721 132.286 184.651 133.497 178.021 133.953 C 168.343 134.62 145.847 133.538 138.772 134.375 C 135.372 134.778 136.312 135.674 132.733 136.064 C 124.641 136.947 98.301 136.345 84.428 136.064 C 72.994 135.833 65.381 136.195 54.667 134.797 C 42.592 133.222 20.493 128.401 15.419 126.353 C 13.606 125.622 13.589 125.192 13.047 124.454 C 12.546 123.769 12.54 122.626 12.184 122.131 C 11.931 121.779 11.61 121.853 11.322 121.498 C 10.894 120.97 10.1 119.651 10.028 118.964 C 9.975 118.456 10.476 118.658 10.46 117.698 C 10.399 114.357 5.415 97.903 4.421 88.143 C 3.452 78.627 3.651 67.876 4.421 59.855 C 5.053 53.278 7.216 48.86 7.872 42.966 C 8.559 36.783 6.643 28.987 8.303 23.545 C 9.773 18.724 12.724 14.502 16.282 11.511 C 19.84 8.52 24.652 7.059 29.653 5.601 C 35.172 3.991 40.206 3.223 48.199 2.645 Z M 49.707 8.556 C 42.021 9.128 36.917 9.959 31.593 11.511 C 26.858 12.892 21.402 14.903 19.085 17.001 C 17.513 18.425 17.707 20.653 16.929 21.645 C 16.382 22.342 15.664 21.83 15.204 22.911 C 14.077 25.563 14.762 36.576 13.91 42.755 C 13.121 48.476 11.1 52.402 10.46 58.8 C 9.653 66.849 9.684 78.647 10.46 87.932 C 11.197 96.76 12.978 108.162 14.773 113.265 C 15.805 116.2 17.947 117.476 18.223 118.753 C 18.386 119.51 17.068 119.823 17.791 120.442 C 20.302 122.587 44.571 127.308 56.609 128.887 C 67.396 130.301 75.491 129.926 86.8 130.153 C 100.044 130.419 123.94 131.003 131.655 130.153 C 135.17 129.766 134.294 128.866 137.694 128.464 C 144.769 127.627 167.265 128.709 176.942 128.042 C 183.573 127.585 184.533 126.38 192.038 125.931 C 205.236 125.142 242.985 125.737 254.577 125.931 C 260.223 126.025 262.419 125.822 264.927 126.353 C 266.684 126.725 265.586 127.61 268.809 128.042 C 281.161 129.694 367.898 128.613 390.869 127.197 C 402.304 126.494 403.912 124.94 412.002 124.242 C 421.71 123.406 437.178 123.853 445.643 122.975 C 451.609 122.357 455.276 121.65 459.445 120.442 C 463.255 119.338 467.895 117.387 469.796 116.22 C 470.829 115.586 471.011 115.577 471.521 114.531 C 472.454 112.622 472.77 109.367 473.678 103.976 C 475.342 94.09 479.879 70.719 480.579 55.421 C 481.224 41.295 479.979 22.756 478.423 15.312 C 477.632 11.533 479.414 10.244 475.404 8.556 C 463.391 3.501 388.051 7.498 358.52 8.556 C 337.755 9.3 333.313 11.565 310.215 12.356 C 271.715 13.676 160.244 13.84 136.4 12.356 C 128.028 11.835 129.402 10.819 123.892 10.245 C 115.833 9.405 102.827 8.85 91.113 8.556 C 78.259 8.233 60.349 7.765 49.707 8.556 Z" style="fill: #FFFFFF; paint-order: stroke; stroke-width: 0px; stroke: rgb(0, 0, 0);"/>
</svg>