<?xml version="1.0" encoding="utf-8"?>
<svg viewBox="-345.379 -47.48 489.575 137.272" id="button-hover" xmlns="http://www.w3.org/2000/svg">
  <path d="M -297.18 -44.835 C -285.861 -45.653 -265.966 -45.171 -252.325 -44.835 C -240.224 -44.536 -227.053 -44.01 -219.115 -43.146 C -213.862 -42.574 -215.358 -41.558 -207.47 -41.035 C -184.576 -39.516 -75.692 -39.745 -37.536 -41.035 C -14.275 -41.822 -9.59 -44.089 11.631 -44.835 C 41.995 -45.902 120.768 -47.59 132.397 -44.835 C 135.453 -44.111 134.652 -43.491 135.631 -42.091 C 136.966 -40.18 138.199 -38.097 139.081 -33.647 C 140.687 -25.55 142.072 -8.33 141.237 6.886 C 140.713 16.466 139.025 30.495 137.047 42.955 C 136.305 49.013 135.402 54.4 134.315 58.116 C 133.417 62.419 132.538 65.916 131.75 68.107 C 130.283 72.183 129.49 72.534 127.22 74.229 C 124.463 76.288 119.751 77.689 115.575 78.873 C 111.16 80.126 107.442 80.788 101.342 81.407 C 92.792 82.274 77.345 81.829 67.7 82.673 C 59.728 83.37 58.339 84.921 46.998 85.629 C 38.577 86.154 22.461 86.55 4.357 86.792 C -17.668 87.494 -52.25 87.512 -73.869 86.66 C -75.644 86.604 -77.202 86.542 -78.511 86.473 C -79.186 86.438 -79.801 86.398 -80.364 86.354 C -80.63 86.339 -80.893 86.324 -81.153 86.309 C -88.716 85.862 -94.926 84.969 -100.48 84.055 C -115.413 83.619 -140.179 83.711 -151.376 84.312 C -152.983 84.907 -154.7 85.421 -156.693 85.705 C -159.159 86.056 -162.095 86.225 -165.202 86.28 C -165.855 86.353 -166.567 86.419 -167.358 86.473 C -176.954 87.134 -199.151 86.076 -206.424 86.874 C -207.739 87.627 -209.341 88.329 -211.686 88.726 C -223.378 90.705 -259.041 89.593 -272.118 88.726 C -273.814 88.614 -275.326 88.499 -276.696 88.373 C -281.164 88.252 -285.583 87.986 -290.712 87.317 C -302.787 85.742 -324.886 80.921 -329.96 78.873 C -331.773 78.142 -331.79 77.712 -332.332 76.974 C -332.833 76.289 -332.839 75.146 -333.195 74.651 C -333.448 74.299 -333.769 74.373 -334.057 74.018 C -334.485 73.49 -335.279 72.171 -335.351 71.484 C -335.404 70.976 -334.903 71.178 -334.919 70.218 C -334.927 69.764 -335.027 69.068 -335.194 68.179 C -336.525 65.36 -337.536 62.091 -338.292 58.208 C -338.702 56.098 -339 53.589 -339.201 50.838 C -339.988 47.199 -340.657 43.623 -340.958 40.663 C -341.927 31.147 -341.728 20.396 -340.958 12.375 C -340.326 5.798 -338.163 1.38 -337.507 -4.514 C -336.82 -10.697 -338.736 -18.493 -337.076 -23.935 C -335.606 -28.756 -332.655 -32.978 -329.097 -35.969 C -325.539 -38.96 -320.727 -40.421 -315.726 -41.879 C -310.207 -43.489 -305.173 -44.257 -297.18 -44.835 Z" style="stroke: rgb(0, 0, 0); stroke-width: 0px; paint-order: stroke; fill: rgb(123, 76, 229);"/>
</svg>