<svg width="13" height="21" viewBox="0 0 13 21" id="class" xmlns="http://www.w3.org/2000/svg">
<path d="M6.43853 11.1606C9.52042 11.1606 12.0188 8.66218 12.0188 5.58026C12.0188 2.49833 9.52046 0 6.43853 0C3.35661 0 0.858276 2.49837 0.858276 5.5803C0.862059 8.66061 3.35822 11.1568 6.43853 11.1606ZM6.43853 2.57551C8.09801 2.57551 9.44331 3.92078 9.44331 5.5803C9.44331 7.23981 8.09805 8.58508 6.43853 8.58508C4.77902 8.58508 3.43375 7.23981 3.43375 5.5803C3.43375 3.92078 4.77906 2.57551 6.43853 2.57551Z" fill="white"/>
<path d="M11.905 13.8048C12.5114 13.4054 12.8769 12.7281 12.8777 12.0019C12.8861 11.3993 12.5461 10.8459 12.0046 10.5811C11.4483 10.3032 10.7824 10.3658 10.2876 10.7425C7.99444 12.4143 4.88422 12.4143 2.59109 10.7425C2.09554 10.3678 1.43078 10.3053 0.874067 10.5811C0.332847 10.8458 -0.00740302 11.3986 0.000122314 12.0011C0.00141007 12.7271 0.366691 13.4042 0.972822 13.8039C1.75047 14.3211 2.59733 14.7257 3.48825 15.0058C3.63936 15.0528 3.7953 15.0963 3.95615 15.1364L1.36177 17.6732C0.681185 18.3336 0.664726 19.4206 1.32506 20.1012C1.9854 20.7818 3.07239 20.7982 3.75301 20.1379C3.76717 20.1241 3.7811 20.1102 3.79478 20.0959L6.43899 17.359L9.08835 20.1011C9.74812 20.7822 10.8352 20.7995 11.5163 20.1397C12.1974 19.4799 12.2147 18.3929 11.5549 17.7118C11.5411 17.6975 11.527 17.6835 11.5128 17.6698L8.92263 15.1355C9.08344 15.0943 9.23998 15.0505 9.39222 15.0041C10.2822 14.7251 11.1282 14.3213 11.905 13.8048Z" fill="white"/>
</svg>
