<svg width="19" height="14" viewBox="0 0 19 14" id="envelope" xmlns="http://www.w3.org/2000/svg">
<path d="M1.82363 4.34306C2.06397 4.49131 2.78847 4.93161 3.99715 5.66375C5.20587 6.39588 6.13183 6.9596 6.77507 7.35495C6.84574 7.39829 6.99589 7.49249 7.22557 7.63769C7.4553 7.78299 7.64618 7.9004 7.79807 7.98996C7.95007 8.07949 8.13382 8.17992 8.34951 8.2911C8.56513 8.40219 8.76837 8.48574 8.95922 8.54106C9.1501 8.59683 9.3268 8.62445 9.48934 8.62445H9.5H9.5107C9.67324 8.62445 9.85001 8.59679 10.0409 8.54106C10.2317 8.48574 10.4351 8.40209 10.6505 8.2911C10.8661 8.17979 11.0498 8.07946 11.2018 7.98996C11.3538 7.9004 11.5445 7.78299 11.7744 7.63769C12.004 7.49236 12.1543 7.39829 12.225 7.35495C12.8752 6.9596 14.5294 5.95554 17.187 4.34286C17.703 4.02789 18.1341 3.64783 18.4803 3.20295C18.8269 2.75826 19 2.29176 19 1.8037C19 1.39586 18.832 1.04673 18.4962 0.756367C18.1605 0.465936 17.7628 0.320801 17.3035 0.320801H1.69636C1.15212 0.320801 0.733297 0.48142 0.439956 0.802657C0.146652 1.12396 0 1.52557 0 2.00746C0 2.39671 0.194447 2.81851 0.583154 3.27261C0.971825 3.72675 1.38545 4.08359 1.82363 4.34306Z" fill="white"/>
<path d="M17.9396 5.3346C15.6214 6.70612 13.8611 7.77202 12.6596 8.53207C12.2567 8.79147 11.9299 8.99397 11.6789 9.13907C11.4279 9.28427 11.0941 9.43255 10.6769 9.58385C10.26 9.73538 9.87138 9.81092 9.51083 9.81092H9.50002H9.48936C9.12888 9.81092 8.74006 9.73538 8.32309 9.58385C7.90612 9.43255 7.57208 9.28427 7.32115 9.13907C7.07029 8.99397 6.74334 8.79147 6.34049 8.53207C5.38619 7.92044 3.62971 6.85447 1.07098 5.3346C0.667973 5.09996 0.311018 4.83102 0 4.52832V11.8868C0 12.2949 0.166037 12.6438 0.498297 12.9342C0.830482 13.2247 1.22992 13.3699 1.69647 13.3699H17.3036C17.7701 13.3699 18.1695 13.2247 18.5017 12.9342C18.834 12.6437 19 12.2949 19 11.8868V4.52832C18.696 4.82476 18.3427 5.0937 17.9396 5.3346Z" fill="white"/>
</svg>
