<svg width="12" height="22" viewBox="0 0 12 22" id="facebook" xmlns="http://www.w3.org/2000/svg">
<path d="M11.4464 0.00457747L8.59351 0C5.38837 0 3.31706 2.12509 3.31706 5.41423V7.91055H0.448592C0.200722 7.91055 0 8.1115 0 8.35937V11.9763C0 12.2241 0.200951 12.4249 0.448592 12.4249H3.31706V21.5514C3.31706 21.7993 3.51778 22 3.76565 22H7.50819C7.75606 22 7.95678 21.799 7.95678 21.5514V12.4249H11.3107C11.5586 12.4249 11.7593 12.2241 11.7593 11.9763L11.7607 8.35937C11.7607 8.24036 11.7133 8.12638 11.6293 8.04215C11.5453 7.95793 11.4309 7.91055 11.3118 7.91055H7.95678V5.79439C7.95678 4.77727 8.19916 4.26094 9.52411 4.26094L11.446 4.26025C11.6936 4.26025 11.8943 4.0593 11.8943 3.81166V0.453169C11.8943 0.205757 11.6938 0.00503522 11.4464 0.00457747Z" fill="white"/>
</svg>
