<svg width="35" height="35" viewBox="0 0 35 35" fill="none" id="html5" xmlns="http://www.w3.org/2000/svg">
<path d="M2.61409 0C2.29239 0 2.05272 0.26216 2.08129 0.582494L4.79319 31.0011C4.82177 31.3215 5.09862 31.6541 5.4087 31.7401L16.9167 34.9354C17.2267 35.0215 17.7338 35.0215 18.0439 34.9356L29.5869 31.7351C29.8969 31.6491 30.1741 31.3166 30.2026 30.9962L32.919 0.582494C32.9478 0.26216 32.7078 0 32.3861 0H2.61409ZM27.1436 6.97639C27.118 7.26213 27.0737 7.75822 27.0451 8.07862L26.9737 8.87672C26.9449 9.19699 26.904 9.65507 26.8824 9.89453C26.8608 10.1341 26.8404 10.3301 26.8366 10.3301C26.833 10.3301 26.5667 10.3301 26.2451 10.3301H18.085C17.7633 10.3301 17.4974 10.3301 17.494 10.3301C17.4905 10.3301 17.2243 10.3301 16.9026 10.3301H12.605C12.2833 10.3301 12.0436 10.5922 12.0722 10.9125L12.3229 13.7146C12.3515 14.0349 12.6382 14.2971 12.9598 14.2971H16.9027C17.2244 14.2971 17.4905 14.2971 17.494 14.2971C17.4976 14.2971 17.7634 14.2971 18.0851 14.2971H24.8624C25.1841 14.2971 25.6819 14.2971 25.9686 14.2971C26.2551 14.2971 26.4684 14.531 26.4425 14.8167C26.4163 15.1025 26.3718 15.5987 26.3433 15.9189L25.5372 24.9527C25.5085 25.2731 25.4721 25.6824 25.4564 25.8623C25.4404 26.0421 25.1738 26.2595 24.8638 26.3455L18.0638 28.231C17.7538 28.3169 17.4963 28.388 17.4914 28.3891C17.4866 28.3901 17.2292 28.3205 16.9191 28.2346L10.1118 26.3457C9.80178 26.2597 9.52478 25.9272 9.49628 25.6068L9.05809 20.6886C9.02952 20.3682 9.26946 20.106 9.59116 20.106H10.2124C10.5341 20.106 11.0605 20.106 11.3821 20.106H12.3085C12.6302 20.106 12.9167 20.3682 12.9454 20.6886L13.1173 22.6139C13.1459 22.9343 13.4232 23.265 13.7338 23.3488L16.918 24.2087C17.2284 24.2926 17.4836 24.3612 17.4851 24.3612C17.4865 24.3612 17.7416 24.2925 18.0522 24.2086L21.2421 23.3466C21.5525 23.2628 21.8301 22.932 21.8589 22.6117L22.2048 18.7544C22.2335 18.434 21.9939 18.1718 21.6722 18.1718H18.0851C17.7634 18.1718 17.4975 18.1718 17.494 18.1718C17.4905 18.1718 17.2244 18.1718 16.9027 18.1718H9.41773C9.09603 18.1718 8.8096 17.9096 8.78103 17.5893L7.93227 8.07869C7.9037 7.75829 7.8594 7.26234 7.83377 6.97646C7.8084 6.69071 8.0506 6.45685 8.3723 6.45685H16.9027C17.2244 6.45685 17.4905 6.45685 17.494 6.45685C17.4976 6.45685 17.7634 6.45685 18.0851 6.45685H26.6052C26.9268 6.45672 27.1691 6.69051 27.1436 6.97639Z" fill="#DD512A"/>
</svg>
