<svg width="17" height="17" viewBox="0 0 17 17" id="linkedin" xmlns="http://www.w3.org/2000/svg">
<path fill-rule="evenodd" clip-rule="evenodd" d="M3.71875 1.85938C3.71875 2.88628 2.88628 3.71875 1.85938 3.71875C0.832471 3.71875 0 2.88628 0 1.85938C0 0.832471 0.832471 0 1.85938 0C2.88628 0 3.71875 0.832471 3.71875 1.85938ZM3.80163 5.3125H0V17H3.80163V5.3125ZM14.1169 5.43659L14.1168 5.43657C14.0904 5.42784 14.064 5.4191 14.0356 5.41131C13.9846 5.39962 13.9336 5.39006 13.8816 5.38156C13.6797 5.34119 13.4587 5.3125 13.1994 5.3125C10.9831 5.3125 9.57738 6.92431 9.11413 7.54694V5.3125H5.3125V17H9.11413V10.625C9.11413 10.625 11.9871 6.62362 13.1994 9.5625V17H17V9.11306C17 7.34719 15.7898 5.87563 14.1568 5.44956C14.1433 5.44532 14.1301 5.44096 14.1169 5.43659Z" fill="white"/>
</svg>
