<svg width="28" height="29" viewBox="0 0 28 29" fill="none" id="linux" xmlns="http://www.w3.org/2000/svg">
<path d="M22.8064 11.7867C20.8479 10.2502 20.025 7.92449 20.426 5.65098C20.4825 5.33105 20.5034 5.00086 20.4854 4.6636C20.3495 2.12682 17.9578 0.0756869 15.0536 0.00210952C11.8824 -0.0782015 9.28276 2.14497 9.28276 4.89895C9.28276 5.31184 9.34119 5.71282 9.4512 6.09581C10.0905 8.32112 9.45966 10.6744 7.65979 12.3445C5.85315 14.0208 4.71033 16.272 4.71033 18.7516C4.71033 24.4624 7.25282 27.2146 10.8906 28.0817C11.7276 27.7533 12.9413 27.5466 14.2922 27.5466C15.5772 27.5466 16.7376 27.7336 17.5681 28.0345C22.0568 27.248 24.1861 25.337 25.6717 20.9249C26.8583 17.401 25.0187 13.5222 22.8064 11.7867Z" fill="#333333"/>
<path d="M22.8073 11.7867C20.8487 10.2502 20.0259 7.92445 20.4268 5.65095C20.4833 5.33102 20.5042 5.00082 20.4862 4.66356C20.3503 2.12679 17.9586 0.0756532 15.0544 0.00207584C14.7964 -0.00449356 14.5425 0.00577084 14.2931 0.0288459V27.5465C15.7888 27.5465 17.1166 27.7997 17.9506 28.1912C22.1975 27.6124 24.2287 25.2134 25.6726 20.9249C26.8592 17.4009 25.0196 13.5222 22.8073 11.7867Z" fill="black"/>
<path d="M7.08667 19.9092C7.08667 16.186 10.4992 7.56384 14.7087 7.56384C18.9182 7.56384 22.3307 16.2296 22.3307 19.9092C22.3307 23.5888 18.9182 26.5718 14.7087 26.5718C10.4992 26.5718 7.08667 23.5888 7.08667 19.9092Z" fill="white"/>
<path d="M14.7087 7.56384C14.5693 7.56384 14.4307 7.57394 14.2931 7.59234V26.5615C14.4307 26.568 14.5692 26.5718 14.7087 26.5718C18.9183 26.5718 22.3308 23.5888 22.3308 19.9092C22.3308 16.2296 18.9183 7.56384 14.7087 7.56384Z" fill="#C0C2C1"/>
<path d="M11.8973 7.17224C12.5907 7.17224 13.1527 6.50534 13.1527 5.68268C13.1527 4.86002 12.5907 4.19312 11.8973 4.19312C11.204 4.19312 10.642 4.86002 10.642 5.68268C10.642 6.50534 11.204 7.17224 11.8973 7.17224Z" fill="#E6E6E6"/>
<path d="M11.8962 6.98596C12.2401 6.98596 12.5188 6.55382 12.5188 6.02075C12.5188 5.48768 12.2401 5.05554 11.8962 5.05554C11.5524 5.05554 11.2737 5.48768 11.2737 6.02075C11.2737 6.55382 11.5524 6.98596 11.8962 6.98596Z" fill="#000100"/>
<path d="M16.3665 7.17224C17.0598 7.17224 17.6218 6.50534 17.6218 5.68268C17.6218 4.86002 17.0598 4.19312 16.3665 4.19312C15.6731 4.19312 15.1111 4.86002 15.1111 5.68268C15.1111 6.50534 15.6731 7.17224 16.3665 7.17224Z" fill="#E6E6E6"/>
<path d="M16.3668 6.98596C16.7106 6.98596 16.9894 6.55382 16.9894 6.02075C16.9894 5.48768 16.7106 5.05554 16.3668 5.05554C16.023 5.05554 15.7443 5.48768 15.7443 6.02075C15.7443 6.55382 16.023 6.98596 16.3668 6.98596Z" fill="#000100"/>
<path d="M18.048 8.23009C18.458 8.99434 15.3354 10.4443 14.2481 10.4443C12.8919 10.4443 10.0595 8.69216 10.4483 8.23009C11.1736 7.36788 12.7573 5.97668 14.0575 5.97668C14.9942 5.97668 17.7693 7.7108 18.048 8.23009Z" fill="#FE9A0F"/>
<path d="M18.0489 8.23012C17.7907 7.74882 15.3892 6.22493 14.2931 6.00427V10.4427C15.4169 10.4066 18.4537 8.98464 18.0489 8.23012Z" fill="#E2810C"/>
<path d="M22.8002 20.156C23.3543 21.0915 24.1784 21.9751 25.2412 22.1797C26.0251 22.3305 26.618 22.9135 26.7055 23.611C26.7176 23.7078 26.734 23.8048 26.755 23.9021C26.8903 24.5327 27.1967 25.0973 27.6241 25.5664C28.2659 26.2706 27.8033 27.321 26.7913 27.4886L18.8 28.8124C17.0593 29.1008 15.7499 27.4511 16.6683 26.1268L21.0806 20.0798C21.4936 19.5137 22.4472 19.5596 22.8002 20.156Z" fill="#DD7F10"/>
<path d="M14.2359 10.0104C13.1003 10.0104 11.9421 9.52548 10.7871 8.56528L11.1757 8.2085C12.3271 9.16566 13.4577 9.60148 14.535 9.50446C16.0222 9.37027 16.9175 8.25815 16.9264 8.24699L17.3903 8.52687C17.348 8.5803 16.3356 9.83712 14.593 9.99429C14.4741 10.005 14.355 10.0104 14.2359 10.0104Z" fill="#AE4E32"/>
<path d="M14.5352 9.5046C14.4549 9.51183 14.3741 9.51511 14.2931 9.51643V10.0093C14.3932 10.0078 14.4933 10.0035 14.593 9.9945C16.3357 9.8373 17.348 8.58022 17.3903 8.52687L16.9264 8.24695C16.9177 8.25811 16.0223 9.37039 14.5352 9.5046Z" fill="#9E402B"/>
<path d="M23.8875 23.4702C25.3014 23.4702 26.4475 22.4683 26.4475 21.2325C26.4475 19.9966 25.3014 18.9948 23.8875 18.9948C22.4737 18.9948 21.3275 19.9966 21.3275 21.2325C21.3275 22.4683 22.4737 23.4702 23.8875 23.4702Z" fill="black"/>
<path d="M6.58905 18.7805C6.58905 18.7805 9.32458 21.6957 11.2739 22.3526C13.2232 23.0095 10.3468 24.9169 7.71636 23.4705C5.08595 22.0241 6.58905 18.7805 6.58905 18.7805Z" fill="#333333"/>
<path d="M5.1189 20.156C4.56482 21.0915 3.74074 21.9751 2.67786 22.1797C1.89399 22.3305 1.30111 22.9135 1.21364 23.611C1.20152 23.7078 1.18508 23.8048 1.16423 23.9021C1.02885 24.5327 0.722503 25.0973 0.295057 25.5664C-0.346676 26.2706 0.115905 27.321 1.12787 27.4886L9.11924 28.8124C10.8599 29.1008 12.1693 27.4511 11.2509 26.1268L6.83855 20.0798C6.42548 19.5137 5.47195 19.5596 5.1189 20.156Z" fill="#FE9B0E"/>
</svg>
