<svg id="logo" width="166" height="59" viewBox="0 0 166 59" fill="none" xmlns="http://www.w3.org/2000/svg">
<path fill-rule="evenodd" clip-rule="evenodd" d="M42.7918 48.7094L41.9583 43.4185L41.1248 38.1277L44.042 40.5631C47.6261 35.1043 47.7928 27.462 43.9587 20.9954C43.5419 20.3235 43.1252 19.7356 42.7084 19.1478C42.5417 18.8118 42.2083 18.4759 41.8749 18.14C39.7912 15.7045 37.2073 13.8569 34.3734 12.7651L38.5409 7.72623L36.1238 4.78687C42.0416 6.80243 47.376 10.8336 50.7934 16.7123C56.2945 26.0343 55.7111 37.2879 50.1266 45.77L53.5439 48.6254L48.1262 48.7094H42.7918Z" fill="white"/>
<path fill-rule="evenodd" clip-rule="evenodd" d="M1.20047 34.0966C-0.133131 23.6829 4.61783 12.9332 14.1197 7.22244C18.9541 4.36706 24.2051 3.19131 29.3728 3.44326L29.2895 0L32.7068 3.86317L36.1242 7.72633L32.8735 11.5055L29.6229 15.2847L29.5395 11.7575C25.6221 11.4215 21.6213 12.2614 17.9539 14.4449C11.2858 18.476 7.95183 25.8664 8.70198 33.0889L2.03397 31.9131L1.20047 34.0966Z" fill="#28619B"/>
<path fill-rule="evenodd" clip-rule="evenodd" d="M4.78348 44.5944C4.20003 43.6706 3.78328 42.7468 3.36652 41.823L0.199219 43.6706L1.69952 38.7157L3.19982 33.7607L8.11748 34.7685L13.0351 35.7763L9.86784 37.7079C10.2012 38.4637 10.618 39.3035 11.0347 40.0594C16.6192 49.5493 28.4549 52.9086 37.3734 47.5338C38.0402 47.1139 38.6236 46.694 39.2904 46.274L40.7907 51.145L45.5417 51.4809C44.4581 52.4047 43.2079 53.3285 41.9576 54.0844C29.0384 61.7267 12.4517 57.4436 4.78348 44.5944Z" fill="#E31E24"/>
<path d="M99.0531 48.7096H88.8844L79.7159 34.9366H76.7153V48.7096H68.4636V11.2537H81.7996C83.6333 11.2537 85.217 11.4216 86.6339 11.6736C87.9675 11.9255 89.3011 12.5134 90.3847 13.2692C91.5516 14.109 92.5518 15.2008 93.2186 16.5445C93.8854 17.8882 94.3021 19.5679 94.3021 21.5834C94.3021 24.4388 93.7187 26.7903 92.6351 28.5539C91.4682 30.3176 89.9679 31.7452 88.0509 32.837L99.0531 48.7096ZM85.6337 22.7592C85.6337 21.8354 85.467 20.9956 85.1336 20.3237C84.8002 19.6519 84.3001 19.148 83.55 18.7281C83.0499 18.4761 82.4664 18.3081 81.7996 18.2242C81.1328 18.1402 80.3827 18.1402 79.4658 18.1402H76.7153V28.218H79.0491C80.216 28.218 81.2162 28.134 81.9663 27.9661C82.7998 27.7981 83.4666 27.4622 84.0501 26.9583C84.5502 26.4544 84.9669 25.9505 85.217 25.2786C85.5504 24.6068 85.6337 23.767 85.6337 22.7592Z" fill="white"/>
<path d="M132.058 48.8775H123.723L110.554 21.8353V48.8775H102.635V10.1619H113.221L124.14 32.3331V10.1619H132.058V48.8775Z" fill="#28619B"/>
<path d="M149.562 49.5494C146.978 49.5494 144.644 49.2974 142.644 48.7095C140.643 48.1217 138.81 47.4498 137.143 46.61V37.372H137.893C139.643 39.0516 141.477 40.3113 143.561 41.1512C145.644 41.991 147.645 42.4949 149.562 42.4949C150.062 42.4949 150.729 42.4109 151.479 42.3269C152.312 42.2429 152.896 41.991 153.396 41.739C153.979 41.4871 154.479 41.0672 154.896 40.4793C155.313 39.8914 155.48 39.2196 155.48 38.3798C155.48 37.372 155.146 36.6161 154.479 36.0283C153.813 35.4404 152.979 35.0205 152.062 34.6846C150.895 34.3486 149.645 34.0127 148.312 33.6768C146.978 33.3408 145.728 33.0049 144.561 32.501C141.894 31.4093 139.977 29.9816 138.81 28.2179C137.643 26.4543 137.059 24.1868 137.059 21.4994C137.059 17.8882 138.393 14.9488 141.143 12.6813C143.894 10.4138 147.228 9.32202 151.312 9.32202C153.396 9.32202 155.396 9.57397 157.397 9.99388C159.397 10.4978 161.231 11.0856 162.814 11.9255V20.7436H162.064C160.814 19.4838 159.23 18.476 157.397 17.6362C155.563 16.7964 153.646 16.3765 151.729 16.3765C150.979 16.3765 150.312 16.4605 149.728 16.5445C149.145 16.6284 148.478 16.8804 147.811 17.2163C147.311 17.4683 146.811 17.8882 146.394 18.476C145.978 18.9799 145.811 19.6518 145.811 20.3237C145.811 21.3314 146.144 22.0873 146.728 22.6751C147.311 23.263 148.562 23.7669 150.312 24.2708C151.479 24.6067 152.562 24.8587 153.646 25.1106C154.73 25.3626 155.813 25.7825 157.063 26.2864C159.48 27.2941 161.231 28.5539 162.398 30.2335C163.565 31.8292 164.148 34.0127 164.148 36.7001C164.148 40.5633 162.814 43.6706 160.147 46.0221C157.73 48.3736 154.146 49.5494 149.562 49.5494Z" fill="#E31E24"/>
</svg>
