<svg width="17" height="17" viewBox="0 0 17 17" id="magnifying-glas" xmlns="http://www.w3.org/2000/svg">
<g clip-path="url(#clip0)">
<path d="M16.6221 14.7738L13.1179 11.2697C13.9624 10.0507 14.3849 8.69166 14.3849 7.19342C14.3849 6.21948 14.1958 5.28801 13.8176 4.39923C13.4397 3.5103 12.9288 2.74411 12.2852 2.10048C11.6416 1.45685 10.8755 0.945974 9.98675 0.568032C9.09772 0.189983 8.16632 0.000976562 7.19238 0.000976562C6.2185 0.000976562 5.28703 0.189983 4.39825 0.568032C3.50932 0.945974 2.74314 1.45685 2.0995 2.10048C1.4558 2.74411 0.944997 3.51044 0.56702 4.39923C0.189007 5.28812 0 6.21948 0 7.19342C0 8.1673 0.189007 9.09845 0.56702 9.98748C0.944961 10.8763 1.4558 11.6423 2.0995 12.286C2.74314 12.9298 3.50947 13.4405 4.39825 13.8186C5.28714 14.1966 6.2185 14.3856 7.19238 14.3856C8.69094 14.3856 10.0497 13.9631 11.2689 13.1187L14.7731 16.6126C15.0183 16.8713 15.3243 17.0008 15.6924 17.0008C16.0466 17.0008 16.3533 16.8714 16.6119 16.6126C16.8706 16.3539 17 16.0474 17 15.6932C17.0001 15.3324 16.8741 15.0258 16.6221 14.7738ZM10.4259 10.4266C9.53027 11.3223 8.45251 11.7702 7.19238 11.7702C5.93245 11.7702 4.8547 11.3222 3.95901 10.4266C3.06332 9.53096 2.6155 8.45335 2.6155 7.19321C2.6155 5.93329 3.06343 4.85535 3.95901 3.95985C4.85452 3.06412 5.93245 2.61633 7.19238 2.61633C8.45237 2.61633 9.53012 3.0643 10.4259 3.95985C11.3216 4.85535 11.7695 5.93329 11.7695 7.19321C11.7695 8.45335 11.3215 9.53096 10.4259 10.4266Z" fill="white"/>
</g>
<defs>
<clipPath id="clip0">
<rect width="17" height="17" fill="white"/>
</clipPath>
</defs>
</svg>
