<svg width="53" height="34" viewBox="0 0 53 34" fill="none" id="mysql" xmlns="http://www.w3.org/2000/svg">
<path d="M37.2778 3.41954C37.2778 3.41954 38.0429 4.1071 38.1739 4.62268C38.1739 4.62268 38.7204 4.2598 38.3488 3.68692C37.9772 3.11396 37.2778 3.41954 37.2778 3.41954Z" fill="#5181A2"/>
<path d="M51.2546 13.5769C50.5674 13.2746 49.9425 13.0957 49.4533 12.9902C48.7918 12.8471 48.2564 12.4214 48.0249 11.8612C47.7275 11.1426 47.1738 9.97867 46.1547 8.21496C44.1434 4.7382 41.9144 3.66844 40.4504 2.77009C39.4895 2.1806 38.2268 2.06101 37.4727 2.04785C37.0925 2.04127 36.7262 1.91978 36.4342 1.70601C35.6661 1.14103 34.1556 0.477096 33.6752 0.725745C33.0848 1.0318 33.6752 1.739 34.5047 2.63644C35.3353 3.53479 35.5109 4.5283 36.1002 5.86555C36.3728 6.48235 36.7014 6.85528 36.975 7.07752C37.2616 7.31103 37.3553 7.67359 37.2034 7.98812C36.6496 9.13232 36.4644 10.5815 36.7779 11.9215C37.1496 13.5073 38.0017 13.4885 38.0017 13.4885C37.9145 11.3678 39.1824 10.4506 39.1824 10.4506C40.3406 13.545 42.9854 15.8569 42.9854 15.8569C40.8436 15.1883 39.2482 12.1316 39.2482 12.1316C39.2482 12.1316 39.0737 12.2842 38.9207 13.2974C38.7677 14.3098 37.3683 14.9209 36.3416 12.7052C35.3139 10.4884 36.6475 7.6991 36.6475 7.6991C36.0571 7.43161 34.8333 4.96729 34.8333 4.5849C34.8333 4.2035 34.3517 3.36256 33.7625 2.84652C33.1721 2.33138 32.014 0.840742 33.3693 0.153285C34.7234 -0.535074 37.4124 1.31812 37.4124 1.31812C41.6527 1.18438 46.0234 5.69323 46.7225 7.29787C47.4216 8.90251 49.3888 12.1128 49.3888 12.1128C49.9469 12.2607 50.4715 12.4518 50.9574 12.6693C51.0629 12.9686 51.162 13.2718 51.2546 13.5769Z" fill="#5181A2"/>
<path d="M52.0514 17.6985C52.0298 17.69 52.0093 17.6806 51.9889 17.6721C50.6337 17.0986 50.0875 15.8952 50.0875 15.8952C50.4387 15.5882 51.0614 15.4121 51.697 15.3123C51.7542 15.5853 51.8058 15.8594 51.8511 16.1352C51.614 16.1757 51.4643 16.2002 51.4643 16.2002C51.4643 16.317 51.6507 16.4912 51.9362 16.6908C51.9836 17.0242 52.0213 17.3604 52.0514 17.6985Z" fill="#5181A2"/>
<path d="M13.0924 30.1899H11.0272C11.0272 30.1899 11.0272 26.0644 10.3388 21.164L7.09285 30.1899H5.42096L2.12656 21.2072C2.12656 21.2072 1.74303 23.8467 1.69024 29.0241C0.966264 27.6305 0.396424 26.1633 0 24.6387C0.151868 22.7224 0.365184 20.6337 0.651806 18.9293H3.33965L6.40454 27.2679L9.65048 18.9293H12.1089C12.1088 18.9293 13.0924 26.2791 13.0924 30.1899Z" fill="#FFA600"/>
<path d="M14.2315 21.9703L16.3624 21.9417C16.3624 21.9417 18.7556 28.2175 18.5262 28.9912C18.5262 28.9912 20.0671 25.2371 20.4605 21.9417H22.5587C22.5587 21.9417 21.4439 28.59 18.0345 32.0861C16.7587 33.3944 15.3269 33.4105 14.0343 32.9185V31.9143C14.0343 31.9143 15.8053 32.4588 16.7233 31.3124C17.4623 30.3896 16.7565 28.7982 16.1111 27.1064C15.9546 26.6967 14.2315 21.9703 14.2315 21.9703Z" fill="#FFA600"/>
<path d="M23.8701 29.3661L24.4274 28.3917C24.4274 28.3917 28.2631 29.8818 29.2465 28.3917C30.23 26.9016 29.2793 26.0992 27.3451 25.2108C25.411 24.3223 23.3783 23.2048 24.2634 20.7689C25.1487 18.3331 29.8367 18.505 31.1808 19.68L30.7219 20.6256C30.7219 20.6256 27.2469 19.3361 26.2962 21.0267C25.3455 22.7174 27.8698 23.5199 28.46 23.7492C29.0501 23.9784 32.3284 25.1533 31.9679 27.2453C31.6073 29.3373 30.1319 30.6267 26.7553 30.3688C25.542 30.1111 24.8536 29.9392 23.8701 29.3661Z" fill="#5181A2"/>
<path d="M41.1449 29.4998C42.5939 28.4819 43.2155 26.6709 43.2155 24.6068C43.2155 21.423 42.1673 18.8418 38.0261 18.8418C34.4602 18.8418 32.8367 21.423 32.8367 24.6068C32.8367 27.7906 34.0239 30.3718 38.0261 30.3718C38.6057 30.3718 39.1314 30.3087 39.6054 30.19L42.6887 31.7711L43.4427 30.481L41.1449 29.4998ZM38.0261 28.9912C35.7056 28.9912 35.0172 27.0278 35.0172 24.6068C35.0172 22.1848 35.6732 20.2224 38.0261 20.2224C40.4263 20.2224 41.034 22.1849 41.034 24.6068C41.0339 27.0278 40.4263 28.9912 38.0261 28.9912Z" fill="#5181A2"/>
<path d="M49.87 28.8477C49.6341 29.3148 49.3787 29.7733 49.1084 30.2235H45.048V18.9891H47.0809V28.8476H49.87V28.8477Z" fill="#5181A2"/>
</svg>
