<svg width="52" height="10" viewBox="0 0 52 10" fill="none" id="nginx" xmlns="http://www.w3.org/2000/svg">
<path d="M10.311 0.955803V7.97794C10.311 8.50293 9.9494 8.96478 9.38864 9.15349C8.82788 9.34219 8.20523 9.21303 7.80277 8.82457L1.60062 2.84513V8.5708C1.60062 9.01889 1.23166 9.39174 0.744234 9.4696C0.257808 7.74434 0 5.94025 0 4.0839C0 2.76542 0.130008 1.47439 0.380493 0.21826C0.397246 0.210894 0.413998 0.204494 0.431854 0.199057C0.992613 0.0103525 1.61527 0.139516 2.01883 0.527974L8.22098 6.50742V0.955892C8.22098 0.451072 8.68845 0.0423584 9.26606 0.0423584C9.84347 0.0423584 10.311 0.450984 10.311 0.955803Z" fill="#009B00"/>
<path d="M38.3876 9.48438C37.8103 9.48438 37.3422 9.07531 37.3422 8.57059V2.8455L31.1403 8.82435C30.7366 9.21342 30.1138 9.34241 29.5534 9.15344C28.993 8.96439 28.631 8.50298 28.631 7.978V0.956022C28.631 0.451383 29.0989 0.0422363 29.6764 0.0422363C30.2537 0.0422363 30.7217 0.451295 30.7217 0.956022V6.50722L36.9238 0.528197C37.3272 0.139305 37.9501 0.00996763 38.5105 0.199109C39.0708 0.388162 39.433 0.849483 39.433 1.37455V8.5705C39.433 9.0754 38.965 9.48438 38.3876 9.48438Z" fill="#009B00"/>
<path d="M27.2612 0.913776V3.3717H25.1704V0.913776C25.1704 0.408616 25.6378 0 26.2158 0C26.7937 8.76861e-05 27.2612 0.408704 27.2612 0.913776Z" fill="#009B00"/>
<path d="M25.1704 4.44861H27.2612V8.70134C27.2612 9.2065 26.7938 9.61511 26.2158 9.61511C25.6378 9.61511 25.1704 9.20659 25.1704 8.70134V4.44861Z" fill="#009B00"/>
<path d="M51.2479 1.97067L48.0153 4.79637L46.5373 6.08913L43.008 9.17412C42.8036 9.35186 42.5363 9.44165 42.269 9.44165C42.0007 9.44165 41.7334 9.35186 41.529 9.17412C41.1212 8.8168 41.1212 8.23868 41.529 7.88136L45.0583 4.79637L46.5372 3.50448L50.0665 0.419498C50.3129 0.20414 50.6515 0.118032 50.9701 0.162051C51.0907 0.756653 51.184 1.36046 51.2479 1.97067Z" fill="#009B00"/>
<path d="M51.0718 7.46795C50.9565 8.1313 50.8087 8.78553 50.6284 9.42871C50.4229 9.39758 50.2259 9.31235 50.0665 9.17398L46.5372 6.08898L45.0583 4.79613L41.529 1.71113C41.1212 1.35468 41.1212 0.775685 41.529 0.419238C41.9378 0.0619141 42.5991 0.0619141 43.0079 0.419238L51.0718 7.46795Z" fill="#009B00"/>
<path d="M21.34 4.66409H17.4409C16.8431 4.66409 16.3582 5.0878 16.3582 5.6105C16.3582 6.13311 16.843 6.55691 17.4409 6.55691H20.0902L19.5212 7.41843H15.8835L14.0645 4.66409L15.8835 1.91116H19.5212L20.4858 3.37185H22.9856L20.771 0.0184326H14.6334L11.5647 4.66409L14.6334 9.31116H20.771L23.8397 4.66409H21.34Z" fill="#009B00"/>
</svg>
