<svg width="39" height="18" viewBox="0 0 39 18" fill="none" id="php" xmlns="http://www.w3.org/2000/svg">
<path d="M9.30837 3.67871H2.06414L0 13.4421C0.446421 14.8716 1.0983 16.2268 1.92768 17.4823H2.59969L3.39933 13.701H7.37992C12.2268 13.701 13.5299 9.89735 13.8422 8.02912C14.1553 6.16163 12.5921 3.67871 9.30837 3.67871ZM10.3593 8.34418C10.1819 9.40322 9.2867 11.5598 6.53933 11.5598H3.85213L5.05324 5.87739H7.78862C10.4549 5.87739 10.5368 7.28521 10.3593 8.34418Z" fill="#3D9AE2"/>
<path d="M37.8765 4.12214C37.2607 3.84421 36.5269 3.67859 35.679 3.67859H28.4348L25.5164 17.4823H28.9703L29.7699 13.701H33.7505C35.9062 13.701 37.361 12.9487 38.3381 11.9486C38.5405 10.9598 38.6465 9.94144 38.6465 8.90141C38.6465 7.24306 38.3776 5.63945 37.8765 4.12214ZM36.73 8.34415C36.5526 9.40319 35.6574 11.5598 32.9091 11.5598H30.2228L31.4239 5.87734H34.1593C36.8256 5.87734 36.9074 7.28517 36.73 8.34415Z" fill="#3D9AE2"/>
<path d="M23.0676 3.72433C21.6618 3.72433 19.7863 3.72433 18.8725 3.72433L19.6599 0H16.2202L13.3018 13.8033H16.7414L18.4198 5.86546C19.0399 5.86546 19.8635 5.86546 20.6181 5.86546C22.0773 5.86546 23.0676 6.13882 22.859 7.32326C22.6506 8.50771 21.4519 13.7466 21.4519 13.7466H24.9437C24.9437 13.7466 26.2987 7.91552 26.5072 6.27543C26.7157 4.63541 24.9959 3.72433 23.0676 3.72433Z" fill="#3D9AE2"/>
</svg>
