<svg width="59" height="62" viewBox="0 0 59 62" id="twirl" xmlns="http://www.w3.org/2000/svg">
<path fill-rule="evenodd" clip-rule="evenodd" d="M46.0008 51.9018L45.12 46.3104L44.2391 40.719L47.3221 43.2928C51.1098 37.5239 51.2859 29.4474 47.234 22.6134C46.7936 21.9034 46.3532 21.2821 45.9128 20.6608C45.7366 20.3058 45.3842 19.9508 45.0319 19.5958C42.8298 17.022 40.0991 15.0694 37.1042 13.9156L41.5085 8.59048L38.954 5.48413C45.2081 7.6142 50.8455 11.8743 54.457 18.087C60.2706 27.9386 59.654 39.8314 53.7523 48.7954L57.3638 51.813L51.6383 51.9018H46.0008Z" fill="white"/>
<path fill-rule="evenodd" clip-rule="evenodd" d="M2.0468 36.4586C0.637436 25.4533 5.65829 14.093 15.7 8.05778C20.8089 5.04019 26.3583 3.79765 31.8196 4.06391L31.7315 0.425049L35.343 4.50767L38.9544 8.5903L35.5191 12.5842L32.0838 16.578L31.9957 12.8504C27.8557 12.4954 23.6276 13.3829 19.7519 15.6905C12.7051 19.9506 9.18169 27.7609 9.97445 35.3936L2.92765 34.1511L2.0468 36.4586Z" fill="#28619B"/>
<path fill-rule="evenodd" clip-rule="evenodd" d="M5.83333 47.5529C5.21673 46.5766 4.77631 45.6003 4.33588 44.624L0.988647 46.5766L2.57418 41.3402L4.15971 36.1038L9.35673 37.1688L14.5537 38.2338L11.2065 40.2751C11.5589 41.0739 11.9993 41.9614 12.4397 42.7602C18.3414 52.7893 30.8495 56.3394 40.2746 50.6592C40.9793 50.2154 41.5959 49.7717 42.3005 49.3279L43.8861 54.4756L48.9069 54.8306C47.7618 55.8069 46.4405 56.7831 45.1193 57.5819C31.4661 65.6584 13.9372 61.132 5.83333 47.5529Z" fill="#E31E24"/>
</svg>
