<svg width="33" height="33" viewBox="0 0 33 33" fill="none" id="windows" xmlns="http://www.w3.org/2000/svg">
<g clip-path="url(#clip0)">
<path d="M12.9742 3.20675L0.5992 4.81415C0.254182 4.85869 -0.00317894 5.15382 -0.000343001 5.50167V15.1267C-0.000343001 15.5063 0.307485 15.8142 0.687178 15.8142H13.0622C13.4419 15.8142 13.7497 15.5063 13.7497 15.1267V3.88738C13.7494 3.68989 13.6643 3.50208 13.5159 3.37175C13.3665 3.24323 13.1699 3.18336 12.9742 3.20675Z" fill="#F44336"/>
<path d="M32.7676 0.861081C32.6203 0.728308 32.4228 0.665659 32.2259 0.689185L15.7259 2.84108C15.381 2.88562 15.1235 3.18075 15.1264 3.5286V15.1267C15.1264 15.5064 15.4343 15.8143 15.814 15.8143H32.3139C32.6936 15.8143 33.0015 15.5064 33.0015 15.1267V1.37671C33.0012 1.17922 32.9159 0.991405 32.7676 0.861081Z" fill="#4CAF50"/>
<path d="M13.0622 17.1891H0.687179C0.307485 17.1891 -0.000343001 17.497 -0.000343001 17.8767V27.5016C-0.00317894 27.8495 0.254182 28.1446 0.599136 28.1892L12.9741 29.8034C13.0035 29.8054 13.0329 29.8054 13.0621 29.8034C13.4418 29.8034 13.7496 29.4956 13.7496 29.1159V17.8767C13.7497 17.497 13.4419 17.1891 13.0622 17.1891Z" fill="#2196F3"/>
<path d="M32.3114 17.1891H15.8114C15.4317 17.1891 15.1239 17.497 15.1239 17.8767V29.4748C15.1211 29.8227 15.3784 30.1178 15.7234 30.1623L32.2234 32.3142C32.2527 32.3162 32.2821 32.3162 32.3113 32.3142C32.691 32.3142 32.9989 32.0064 32.9989 31.6267V17.8767C32.9989 17.497 32.6911 17.1891 32.3114 17.1891Z" fill="#FFC107"/>
</g>
<defs>
<clipPath id="clip0">
<rect width="33" height="33" fill="white"/>
</clipPath>
</defs>
</svg>
