<svg width="20" height="14" viewBox="0 0 20 14" id="youtube" xmlns="http://www.w3.org/2000/svg">
<path d="M19.5889 5.35938C19.5817 4.96568 19.5505 4.46789 19.496 3.86648C19.4412 3.26473 19.3628 2.72694 19.2608 2.2531C19.1441 1.72088 18.8907 1.27239 18.5007 0.907807C18.1107 0.543144 17.6567 0.331755 17.1388 0.273334C15.52 0.0911753 13.0737 0 9.79988 0C6.52604 0 4.07971 0.0911753 2.46097 0.273334C1.94318 0.331717 1.49102 0.543144 1.10468 0.907807C0.718178 1.27228 0.466603 1.72076 0.349914 2.2531C0.240657 2.7271 0.158522 3.26484 0.103856 3.86648C0.0492653 4.46789 0.0182351 4.96549 0.0109947 5.35938C0.00360104 5.75312 0 6.29994 0 7C0 7.69998 0.00360104 8.24696 0.011033 8.64062C0.0182734 9.03459 0.0493036 9.53211 0.103894 10.1335C0.158561 10.7352 0.236979 11.273 0.339072 11.7469C0.455761 12.2793 0.709098 12.7277 1.0992 13.0921C1.48937 13.4567 1.94337 13.6681 2.461 13.7265C4.07975 13.9089 6.52593 14 9.79992 14C13.074 14 15.52 13.9089 17.1389 13.7265C17.6567 13.6682 18.1087 13.4567 18.4952 13.0921C18.8817 12.7276 19.1331 12.279 19.2498 11.7469C19.3592 11.273 19.4412 10.7352 19.496 10.1335C19.5505 9.53214 19.5815 9.03436 19.5889 8.64062C19.5962 8.24696 19.5998 7.69998 19.5998 7C19.5998 6.29994 19.5962 5.75312 19.5889 5.35938ZM13.6718 7.59065L8.07192 11.0905C7.96979 11.1634 7.84571 11.1998 7.69994 11.1998C7.59065 11.1998 7.47764 11.1706 7.36098 11.1123C7.1204 10.9812 7.00015 10.7769 7.00015 10.4999V3.50013C7.00015 3.2232 7.12044 3.01894 7.36098 2.88773C7.60896 2.75629 7.84586 2.76364 8.07192 2.9096L13.6718 6.40951C13.8905 6.53324 13.9998 6.73023 13.9998 7.00004C13.9998 7.26973 13.8905 7.46679 13.6718 7.59065Z" fill="white"/>
</svg>
