<svg viewBox="0 0 1569.3 1120" xmlns="http://www.w3.org/2000/svg" xmlns:xlink="http://www.w3.org/1999/xlink"><style>:root>svg{display:none}:root>svg:target{display:block}</style><svg aria-hidden="true" data-prefix="fab" data-icon="android" class="aasvg-inline--fa aafa-android aafa-w-18" viewBox="0 0 576 512" id="android"><path fill="currentColor" d="M420.6 302a24 24 0 1124-24 24 24 0 01-24 24m-265.2 0a24 24 0 1124-24 24 24 0 01-24 24m273.8-144.5l47.9-83a10 10 0 10-17.3-10l-48.5 84a301.3 301.3 0 00-246.6 0l-48.5-84a10 10 0 10-17.3 10l48 83A283 283 0 000 384h576a283 283 0 00-146.8-226.6"/></svg><svg viewBox="2.6 23 460.9 33.4" id="bottom-line"><path d="M6 40L64 37.8c18.6 2.7 60.5-.6 80.8 0 23.6.7 48.4 5 77.3 3.9 34.8-1.4 66.5-.7 103.4-.9 2 0 22.4 3.5 42.1 0 14.7-2.6 37.3.2 55.2.5 8.3.1 15.8-.7 25.2-1.8 7.6-.9 8.3-1.3 14.3-1.3" fill="#d8d8d8" stroke="#000" stroke-width="15"/></svg><svg viewBox="2.6 23 460.9 33.4" id="bottom-line-tabs"><path d="M6 40L64 37.8c18.6 2.7 60.5-.6 80.8 0 23.6.7 48.4 5 77.3 3.9 34.8-1.4 66.5-.7 103.4-.9 2 0 22.4 3.5 42.1 0 14.7-2.6 37.3.2 55.2.5 8.3.1 15.8-.7 25.2-1.8 7.6-.9 8.3-1.3 14.3-1.3" fill="#d8d8d8" stroke="#000" stroke-width="5"/></svg><svg viewBox="2.6 23 460.9 33.4" id="bottom-line-tabs-active"><path d="M6 40L64 37.8c18.6 2.7 60.5-.6 80.8 0 23.6.7 48.4 5 77.3 3.9 34.8-1.4 66.5-.7 103.4-.9 2 0 22.4 3.5 42.1 0 14.7-2.6 37.3.2 55.2.5 8.3.1 15.8-.7 25.2-1.8 7.6-.9 8.3-1.3 14.3-1.3" fill="#e31e24" stroke="#000" stroke-width="51"/></svg><svg viewBox="1.3 0 494.2 21.3" id="bottom-line-tech"><path d="M438.4 7.9c24.4 0 45.3-1.1 50.4 0 1.4.3 1.3.5 1.6 1.1.4.8.7 2.4.5 3.3-.2.6.9 1-1.2 1.6-17.5 4.1-382.4 4.3-418.9 2.7-7.9-.3-4.1-1-9.1-1.4-10-.6-48.2 1.5-53.6 0-1.6-.4-1.5-.8-1.6-1.6-.3-1-1-3.2 1.1-4.3 5.8-3 46.2-1 56.4-.5 4.8.3 3 1 8.7 1.4 15.3.9 75.4.4 106.3 0 25.8-.3 37.5-1.4 67.8-1.8 46-.7 150-.4 191.6-.5z" fill="#fff"/></svg><svg preserveAspectRatio="none" fill="none" viewBox="0 0 220 62" id="btn-blue"><path fill="#1F2845" d="M9.7 7.6l4.8-1.8c2.6-1.6 7.1-2.7 13-3.3 5.8-.5 12.8-.7 20.2-.6 6.7 0 13.8.3 20.6.6h1.8c7.4.3 14.3.5 20.2.5 7.7 0 16-.2 24.6-.4 24.7-.4 51.8-.9 73.4.4 8 .4 13.4 1 17.2 1.6 4 .7 6 1.5 7.2 2.4 1.2.9 1.7 1.9 2.2 3.4l.3 1.1c.4 1.3.8 3 1.7 4.8 3.3 7 2 14.4.7 21.9a60.7 60.7 0 00-1 7.1 11 11 0 01-3.4 6.1c-3.7 3.5-9.9 5.3-18.4 6.3-8.6 1-19.2 1-31.8 1-12.6-.1-27.2.4-42.3.9l-28 .8c-24.8.6-49 .4-67-2.7-13-2.2-18.8-6.3-21.3-10.4-2.4-3.9-2.2-8-2.1-11.6v-1c.1-2.3-.3-4.6-.6-7-.4-2.3-.7-4.6-.7-6.9 0-2.3.4-4.5 1.5-6.5 1.1-2.1 3-4.1 6-6a1.2 1.2 0 00.1-.1l1.1-.6m0 0l1.2-.5 1-.3 1-.4a27.9 27.9 0 001.6-.6z"/></svg><svg preserveAspectRatio="none" viewBox="0 0 220 62" id="btn-light-blue"><path fill="#B0CFE4" d="M9.7 7.6l4.8-1.8c2.6-1.6 7.1-2.7 13-3.3 5.8-.5 12.8-.7 20.2-.6 6.7 0 13.8.3 20.6.6h1.8c7.4.3 14.3.5 20.2.5 7.7 0 16-.2 24.6-.4 24.7-.4 51.8-.9 73.4.4 8 .4 13.4 1 17.2 1.6 4 .7 6 1.5 7.2 2.4 1.2.9 1.7 1.9 2.2 3.4l.3 1.1c.4 1.3.8 3 1.7 4.8 3.3 7 2 14.4.7 21.9a60.7 60.7 0 00-1 7.1 11 11 0 01-3.4 6.1c-3.7 3.5-9.9 5.3-18.4 6.3-8.6 1-19.2 1-31.8 1-12.6-.1-27.2.4-42.3.9l-28 .8c-24.8.6-49 .4-67-2.7-13-2.2-18.8-6.3-21.3-10.4-2.4-3.9-2.2-8-2.1-11.6v-1c.1-2.3-.3-4.6-.6-7-.4-2.3-.7-4.6-.7-6.9 0-2.3.4-4.5 1.5-6.5 1.1-2.1 3-4.1 6-6a1.2 1.2 0 00.1-.1l1.1-.6m0 0l1.2-.5 1-.3 1-.4a27.9 27.9 0 001.6-.6z"/></svg><svg preserveAspectRatio="none" fill="none" viewBox="0 0 220 62" id="btn-transparent-hover"><path stroke="#fff" stroke-width="2" d="M9.7 7.6l4.8-1.8c2.6-1.6 7.1-2.7 13-3.3 5.8-.5 12.8-.7 20.2-.6 6.7 0 13.8.3 20.6.6h1.8c7.4.3 14.3.5 20.2.5 7.7 0 16-.2 24.6-.4 24.7-.4 51.8-.9 73.4.4 8 .4 13.4 1 17.2 1.6 4 .7 6 1.5 7.2 2.4 1.2.9 1.7 1.9 2.2 3.4l.3 1.1c.4 1.3.8 3 1.7 4.8 3.3 7 2 14.4.7 21.9a60.7 60.7 0 00-1 7.1 11 11 0 01-3.4 6.1v0c-3.7 3.5-9.9 5.3-18.4 6.3-8.6 1-19.2 1-31.8 1-12.6-.1-27.2.4-42.3.9l-28 .8c-24.8.6-49 .4-67-2.7-13-2.2-18.8-6.3-21.3-10.4-2.4-3.9-2.2-8-2.1-11.6v-1 0c.1-2.3-.3-4.6-.6-7h0c-.4-2.3-.7-4.6-.7-6.9 0-2.3.4-4.5 1.5-6.5 1.1-2.1 3-4.1 6-6a1.2 1.2 0 00.1-.1l1.1-.6m0 0h0m0 0h0m0 0l1.2-.5 1-.3 1-.4a27.9 27.9 0 001.6-.6z"/></svg><svg preserveAspectRatio="none" fill="none" viewBox="0 0 220 62" id="btn-violet"><path fill="#7B4CE5" d="M9.7 7.6l4.8-1.8c2.6-1.6 7.1-2.7 13-3.3 5.8-.5 12.8-.7 20.2-.6 6.7 0 13.8.3 20.6.6h1.8c7.4.3 14.3.5 20.2.5 7.7 0 16-.2 24.6-.4 24.7-.4 51.8-.9 73.4.4 8 .4 13.4 1 17.2 1.6 4 .7 6 1.5 7.2 2.4 1.2.9 1.7 1.9 2.2 3.4l.3 1.1c.4 1.3.8 3 1.7 4.8 3.3 7 2 14.4.7 21.9a60.7 60.7 0 00-1 7.1 11 11 0 01-3.4 6.1c-3.7 3.5-9.9 5.3-18.4 6.3-8.6 1-19.2 1-31.8 1-12.6-.1-27.2.4-42.3.9l-28 .8c-24.8.6-49 .4-67-2.7-13-2.2-18.8-6.3-21.3-10.4-2.4-3.9-2.2-8-2.1-11.6v-1c.1-2.3-.3-4.6-.6-7-.4-2.3-.7-4.6-.7-6.9 0-2.3.4-4.5 1.5-6.5 1.1-2.1 3-4.1 6-6a1.2 1.2 0 00.1-.1l1.1-.6m0 0l1.2-.5 1-.3 1-.4a27.9 27.9 0 001.6-.6z"/></svg><svg viewBox="-345.4 -47.5 489.6 137.3" id="button-hover"><path d="M-297.2-44.8c11.3-.9 31.2-.4 44.9 0 12 .3 25.2.8 33.2 1.7 5.2.5 3.7 1.5 11.6 2 23 1.6 131.8 1.4 170 0 23.2-.7 28-3 49.1-3.7 30.4-1.1 109.2-2.8 120.8 0 3 .7 2.3 1.3 3.2 2.7 1.4 2 2.6 4 3.5 8.5 1.6 8 3 25.3 2.1 40.5a394 394 0 01-6.9 51.2c-.9 4.3-1.8 7.8-2.6 10-1.4 4-2.2 4.4-4.5 6.1-2.7 2-7.4 3.5-11.6 4.7-4.4 1.2-8.2 1.9-14.3 2.5-8.5.9-24 .4-33.6 1.3-8 .7-9.4 2.2-20.7 3-8.4.5-24.5.8-42.6 1a1312.3 1312.3 0 01-85.6-.4c-7.5-.4-13.7-1.3-19.3-2.2-15-.5-39.7-.4-50.9.2-1.6.6-3.3 1.1-5.3 1.4a71.5 71.5 0 01-10.7.8c-9.6.6-31.8-.4-39 .4-1.3.7-3 1.4-5.3 1.8-11.7 2-47.3.9-60.4 0-1.7 0-3.2-.2-4.6-.3-4.5-.1-8.9-.4-14-1-12-1.7-34.2-6.5-39.3-8.5-1.8-.8-1.8-1.2-2.3-2-.5-.6-.5-1.8-.9-2.2-.2-.4-.6-.3-.9-.7a7 7 0 01-1.3-2.5c0-.5.5-.3.5-1.3l-.3-2a42 42 0 01-3-10c-.5-2.1-.8-4.6-1-7.4-.8-3.6-1.5-7.2-1.8-10.1-1-9.6-.7-20.3 0-28.3.7-6.6 2.8-11 3.5-17 .7-6.1-1.2-13.9.4-19.3 1.5-4.9 4.4-9 8-12 3.6-3 8.4-4.5 13.4-6a83 83 0 0118.5-3z" paint-order="stroke" fill="#7b4ce5"/></svg><svg viewBox="0 0 489.6 137.3" id="button-stroke"><path d="M48.2 2.6c11.3-.8 31.2-.3 44.9 0 12 .3 25.2.9 33.2 1.7 5.2.6 3.7 1.6 11.6 2.1 22.9 1.6 131.8 1.3 170 0 23.2-.7 27.9-3 49.1-3.8 30.4-1 109.1-2.7 120.8 0 3 .8 2.2 1.4 3.2 2.8 1.3 1.9 2.6 4 3.5 8.4 1.6 8.1 3 25.3 2.1 40.6-1 18-6 51.7-9.5 61.2-1.4 4-2.2 4.4-4.5 6.1-2.8 2-7.5 3.5-11.6 4.7-4.5 1.2-8.2 1.9-14.3 2.5-8.5.9-24 .4-33.6 1.3-8 .7-9.4 2.2-20.7 3-23.2 1.4-105 1.8-125.5.8-8.8-.5-7.5-1.7-14.7-2.2a755 755 0 00-59 0c-7.5.5-8.5 1.7-15.2 2.2-9.7.6-32.2-.5-39.2.4-3.4.4-2.5 1.3-6 1.7-8.2.8-34.5.2-48.4 0-11.4-.3-19 0-29.7-1.3-12.1-1.6-34.2-6.4-39.3-8.4-1.8-.8-1.8-1.2-2.4-2-.5-.6-.5-1.8-.8-2.3-.3-.3-.6-.2-.9-.6A7 7 0 0110 119c0-.5.5-.3.5-1.3-.1-3.3-5-19.8-6-29.6-1-9.5-.8-20.2 0-28.2.6-6.6 2.7-11 3.4-17 .7-6.1-1.3-14 .4-19.4 1.5-4.8 4.4-9 8-12 3.5-3 8.4-4.4 13.4-5.9a83 83 0 0118.5-3zm1.5 6a83 83 0 00-18.1 3A38 38 0 0019 17c-1.6 1.4-1.4 3.7-2.2 4.6-.5.7-1.2.2-1.7 1.3-1.1 2.7-.4 13.7-1.3 19.9-.8 5.7-2.8 9.6-3.4 16-.8 8-.8 19.8 0 29.1.7 8.9 2.5 20.3 4.3 25.4 1 2.9 3.1 4.2 3.4 5.5.2.7-1.1 1-.4 1.6 2.5 2.2 26.8 7 38.8 8.5 10.8 1.4 18.9 1 30.2 1.3 13.2.2 37.1.8 44.9 0 3.5-.4 2.6-1.3 6-1.7 7-.9 29.6.2 39.2-.5 6.7-.4 7.6-1.6 15.1-2 13.2-.9 51-.3 62.6 0 5.6 0 7.8-.2 10.3.4 1.8.3.7 1.2 4 1.6 12.3 1.7 99 .6 122-.8 11.4-.7 13-2.3 21.1-3 9.7-.8 25.2-.3 33.6-1.2 6-.6 9.7-1.3 13.8-2.6 3.9-1 8.5-3 10.4-4.2 1-.6 1.2-.6 1.7-1.7 1-1.9 1.3-5.1 2.2-10.5 1.6-10 6.2-33.3 6.9-48.6.6-14.1-.6-32.6-2.2-40-.8-3.9 1-5.2-3-6.8-12-5.1-87.3-1.1-116.9 0-20.7.7-25.2 3-48.3 3.8-38.5 1.3-150 1.4-173.8 0-8.4-.6-7-1.6-12.5-2.2-8-.8-21-1.3-32.8-1.6-12.8-.4-30.8-.8-41.4 0z" fill="#fff" paint-order="stroke"/></svg><svg aria-hidden="true" data-prefix="fas" data-icon="suitcase" class="alsvg-inline--fa alfa-suitcase alfa-w-16" viewBox="0 0 512 512" id="case"><path fill="currentColor" d="M128 480h256V80a48 48 0 00-48-48H176a48 48 0 00-48 48v400zm64-384h128v32H192V96zm320 80v256a48 48 0 01-48 48h-48V128h48a48 48 0 0148 48zM96 480H48a48 48 0 01-48-48V176a48 48 0 0148-48h48v352z"/></svg><svg viewBox="0 0 13 21" id="class"><path d="M6.4 11.2A5.6 5.6 0 106.4 0a5.6 5.6 0 000 11.2zm0-8.6a3 3 0 110 6 3 3 0 010-6z" fill="#fff"/><path d="M11.9 13.8c.6-.4 1-1 1-1.8 0-.6-.4-1.2-.9-1.4-.6-.3-1.2-.2-1.7.1a6.5 6.5 0 01-7.7 0c-.5-.3-1.2-.4-1.7-.1-.6.2-1 .8-.9 1.4 0 .7.4 1.4 1 1.8a10 10 0 003 1.3l-2.6 2.6A1.7 1.7 0 103.8 20l2.6-2.7L9.1 20a1.7 1.7 0 102.4-2.4L9 15l.5-.1c.9-.3 1.7-.7 2.5-1.2z" fill="#fff"/></svg><svg aria-hidden="true" data-prefix="fab" data-icon="connectdevelop" class="ansvg-inline--fa anfa-connectdevelop anfa-w-18" viewBox="0 0 576 512" id="connect"><path fill="currentColor" d="M550.5 241l-50-86.8a16 16 0 001.8-7.2c0-8-6.7-14.8-14.7-15L432 36c.5-1.5 1-3.1 1-4.7a15.3 15.3 0 00-27-9.7H299.5c-2.7-3.5-6.7-5.6-11.5-5.6s-8.8 2.1-11.5 5.6h-106a15.3 15.3 0 00-27 9.6c-.1 1.7.4 3.6 1 4.9l-56 97.2a15 15 0 00-9.2 13.7c0 .5.3 1 .3 1.6l-53.3 92.1a15.2 15.2 0 00-12.6 15c0 7.3 5.1 13.4 12 15L81 366.1a15 15 0 0011.3 19.6l51.7 89.7c-.5 1.6-1 3.5-1 5.3a15.3 15.3 0 0026.7 10h106.9c2.7 3.2 7 5.3 11.5 5.3s8.8-2.1 11.5-5.4h107.2a15 15 0 0011 4.9c8.5 0 15.2-7 15.2-15.3 0-1.6-.3-3-.8-4.3l51.7-90.3a15 15 0 0011.3-19.5l54.9-95.4c7-1.3 12.3-7.5 12.3-15a15 15 0 00-11.8-14.7zm-397 209.7L110 375h43.6v75.8zm0-83.8H110c-.3-1-.8-2.1-1.4-3.2l45-47.4v50.6zm0-62.4l-50.3 53.3c-1.4-.5-2.7-1.4-4-1.6l-55.8-96.4c.6-1.4.6-2.7.6-4s0-2.5-.3-3.6l52-90c2.7-.2 5.3-1 7.7-2.6l50.1 52v92.9zm0-102.3l-45.8-47.4c1.4-2.2 2.2-4.9 2.2-7.8l-.3-1 44-15.9v72zm0-80.7L110 137.3l43.6-75.5v59.7zm326.6 39.1l.8 1.4L445.5 329 381.7 262l98-101.5.4.2zM291.7 355.1l11.6 11.8h-22.8l11.3-11.8zm-.2-11.2l-83.3-85.5 79.5-84.4 83 87.6-79.2 82.3zm5.3 5.9l79.3-82.3 67.5 71.3-5.9 28h-124l-16.9-17zM410.4 44.4c1 .5 2.2 1 3.5 1.3l57.9 100.7v.6c0 3 .8 5.6 2 7.8L376.5 256l-83-87.6 117-124zm-9.1-2.1L287.7 162.5l-57-60.3 166.3-60h4.3zm-123.5 0a14.2 14.2 0 0020.4 0h75L224.8 95.8l-51-53.5h104zm-116.2 5.6l1-2.2a33.8 33.8 0 002.7-.8l51.2 53.9-55 19.8V47.9zm0 79.3l60.8-22 59.7 63.2-79.5 84.1-41-42v-83.3zm0 92.6l36.4 37.8-36.4 38.3v-76zm0 87.9l42-44.5 82.8 86-17.2 17.7H161.7v-59.2zm7 162a14.4 14.4 0 00-6-3.4l-1-1.6v-89.8h99.9l-91.6 94.8h-1.4zm129.8 0c-2.6-2.4-6.4-4.2-10.4-4.2s-7.8 1.8-10.4 4.2H181l91.6-94.8H311l91.6 94.8H298.4zm120-11.7l-4.2 7.5c-1.4.2-2.4.8-3.5 1.3l-89.2-91.9h114.4l-17.5 83zm12.9-22.3l12.9-60.8h22l-34.9 60.8zm34.8-68.8h-20.3l4.5-21.2 17.2 18.2c-.6.8-1.1 2-1.4 3zm66.2-107.4l-55.5 96.7a27 27 0 00-4 1.9l-20.6-22 34.6-164 45.8 79.3c-.3 1.4-.8 2.7-.8 4.3 0 1.4.2 2.4.5 3.8z"/></svg><svg fill="none" viewBox="0 0 34 34" id="css3"><path d="M2.1 0l2.7 30.6L17 34l12.2-3.4L31.9 0H2z" fill="#2196F3"/><path d="M26 10l-.3 3.9-1 11.5-7.7 2.1-7.7-2.1-.5-6h3.7l.3 3 4.2 1.2 4.2-1.1.6-5.2H8.6l-.4-3.6 13.9-.1.3-3.8H7.8l-.2-3.5h18.8l-.3 3.7z" fill="#FAFAFA"/></svg><svg viewBox="0 0 19 14" id="envelope"><path d="M1.8 4.3A498.3 498.3 0 009 8.5l.5.1h.5l.7-.3a11.5 11.5 0 001.5-1c.7-.3 2.3-1.3 5-3 .5-.3 1-.7 1.3-1.1.3-.4.5-1 .5-1.4 0-.4-.2-.8-.5-1-.3-.3-.7-.5-1.2-.5H1.7C1.2.3.7.5.4.8.1 1.1 0 1.5 0 2c0 .4.2.8.6 1.3.4.4.8.8 1.2 1z" fill="#fff"/><path d="M18 5.3a223.7 223.7 0 00-7.3 4.3l-1.2.2c-.4 0-.8 0-1.2-.2l-1-.5-1-.6a215.4 215.4 0 00-6.3-4V12c0 .4.2.7.5 1 .3.3.7.5 1.2.5h15.6c.5 0 .9-.2 1.2-.5.3-.3.5-.6.5-1V4.5l-1 .8z" fill="#fff"/></svg><svg aria-hidden="true" data-prefix="far" data-icon="envelope" class="aqsvg-inline--fa aqfa-envelope aqfa-w-16" viewBox="0 0 512 512" id="envelope-dot"><path fill="currentColor" d="M464 64H48a48 48 0 00-48 48v288a48 48 0 0048 48h416a48 48 0 0048-48V112a48 48 0 00-48-48zm0 48v40.8a9970.3 9970.3 0 01-134.6 106.5c-16.8 13.2-50.2 45-73.4 44.7-23.2.4-56.6-31.5-73.4-44.7A9969.7 9969.7 0 0148 152.8V112h416zM48 400V214.4c23 18.2 55.4 43.9 105 82.6 21.8 17.2 60 55.2 103 55 42.7.2 80.5-37.2 103-55 49.6-38.7 82-64.3 105-82.6V400H48z"/></svg><svg viewBox="0 0 12 22" id="facebook"><path d="M11.4 0H8.6C5.4 0 3.3 2.1 3.3 5.4V8H.4c-.2 0-.4.2-.4.5V12c0 .2.2.4.4.4h3v9.2c0 .2.1.4.4.4h3.7c.3 0 .5-.2.5-.4v-9.2h3.3c.3 0 .5-.2.5-.4V8.4a.4.4 0 00-.5-.5H8V5.8c0-1 .2-1.5 1.5-1.5h2c.2 0 .4-.2.4-.5V.5c0-.3-.2-.5-.5-.5z" fill="#fff"/></svg><svg viewBox="0 0 33 23" id="hamburger"><path d="M0 22.5h33v-3.7H0v3.7zm0-9.2h33V9.7H0v3.6zM0 .5v3.7h33V.5H0z"/></svg><svg fill="none" viewBox="0 0 35 35" id="html5"><path d="M2.6 0c-.3 0-.5.3-.5.6L4.8 31c0 .3.3.7.6.7L17 35H18l11.6-3.2c.3 0 .6-.4.6-.7L32.9.6c0-.3-.2-.6-.5-.6H2.6zm24.5 7v1L27 9l-.1 1v.4H17.4 12.6c-.3 0-.6.3-.5.6l.2 2.8c0 .3.3.6.7.6H25.9c.4 0 .6.2.5.5V16l-.9 9v1c0 .1-.3.4-.6.4l-6.8 2h-.6-.6l-6.8-2a1 1 0 01-.6-.7l-.4-5c0-.2.2-.5.5-.5h2.8c.2 0 .5.3.5.6l.2 2c0 .2.3.6.6.6l3.2 1h1.2l3.1-1c.4 0 .6-.4.7-.7l.3-3.8c0-.4-.2-.6-.5-.6h-4.2-8.1a.7.7 0 01-.6-.6L7.9 8V7c0-.3.2-.5.5-.5h18.2c.3 0 .6.2.5.5z" fill="#DD512A"/></svg><svg aria-hidden="true" data-prefix="fab" data-icon="instagram" viewBox="0 0 448 512" id="instagram"><path d="M224.1 141c-63.6 0-114.9 51.3-114.9 114.9s51.3 114.9 114.9 114.9S339 319.5 339 255.9 287.7 141 224.1 141zm0 189.6a74.8 74.8 0 11.1-149.3 74.8 74.8 0 01-.1 149.3zm146.4-194.3a26.7 26.7 0 11-53.6 0 26.8 26.8 0 0153.6 0zm76.1 27.2c-1.7-35.9-9.9-67.7-36.2-93.9-26.2-26.2-58-34.4-93.9-36.2-37-2.1-147.9-2.1-184.9 0-35.8 1.7-67.6 9.9-93.9 36.1s-34.4 58-36.2 93.9c-2.1 37-2.1 147.9 0 184.9 1.7 35.9 9.9 67.7 36.2 93.9s58 34.4 93.9 36.2c37 2.1 147.9 2.1 184.9 0 35.9-1.7 67.7-9.9 93.9-36.2 26.2-26.2 34.4-58 36.2-93.9 2.1-37 2.1-147.8 0-184.8zM398.8 388a75.6 75.6 0 01-42.6 42.6c-29.5 11.7-99.5 9-132.1 9s-102.7 2.6-132.1-9A75.6 75.6 0 0149.4 388c-11.7-29.5-9-99.5-9-132.1s-2.6-102.7 9-132.1A75.6 75.6 0 0192 81.2c29.5-11.7 99.5-9 132.1-9s102.7-2.6 132.1 9a75.6 75.6 0 0142.6 42.6c11.7 29.5 9 99.5 9 132.1s2.7 102.7-9 132.1z"/></svg><svg viewBox="0 0 17 17" id="linkedin"><path fill-rule="evenodd" clip-rule="evenodd" d="M3.7 1.9a1.9 1.9 0 11-3.7 0 1.9 1.9 0 013.7 0zm.1 3.4H0V17h3.8V5.3zm10.3.1H13.1c-2.2 0-3.6 1.5-4 2.1V5.3H5.2V17h3.8v-6.4s2.9-4 4.1-1V17H17V9.1a3.8 3.8 0 00-2.9-3.7z" fill="#fff"/></svg><svg fill="none" viewBox="0 0 28 29" id="linux"><path d="M22.8 11.8a6.3 6.3 0 01-2.4-6.1v-1C20.5 2 18 0 15.2 0c-3.2 0-5.8 2.1-5.8 4.9 0 .4 0 .8.2 1.2.6 2.2 0 4.6-1.8 6.2-1.8 1.7-3 4-3 6.5 0 5.7 2.6 8.4 6.2 9.3.8-.3 2-.6 3.4-.6 1.3 0 2.4.2 3.3.5 4.5-.8 6.6-2.7 8-7 1.3-3.6-.6-7.5-2.8-9.2z" fill="#333"/><path d="M22.8 11.8a6.3 6.3 0 01-2.4-6.1v-1C20.5 2 18 0 15.2 0h-.8v27.5c1.5 0 2.8.3 3.7.7 4.2-.6 6.2-3 7.7-7.3 1.2-3.5-.7-7.4-2.9-9.1z" fill="#000"/><path d="M7 20c0-3.8 3.5-12.4 7.7-12.4s7.6 8.6 7.6 12.3c0 3.7-3.4 6.7-7.6 6.7-4.2 0-7.6-3-7.6-6.7z" fill="#fff"/><path d="M14.7 7.6h-.4v19h.4c4.2 0 7.6-3 7.6-6.7S19 7.6 14.7 7.6z" fill="#C0C2C1"/><path d="M11.9 7.2c.7 0 1.3-.7 1.3-1.5s-.6-1.5-1.3-1.5c-.7 0-1.3.7-1.3 1.5s.6 1.5 1.3 1.5z" fill="#E6E6E6"/><path d="M11.9 7c.3 0 .6-.4.6-1 0-.5-.3-1-.6-1s-.6.5-.6 1c0 .6.3 1 .6 1z" fill="#000100"/><path d="M16.4 7.2c.7 0 1.2-.7 1.2-1.5s-.5-1.5-1.2-1.5-1.3.7-1.3 1.5.6 1.5 1.3 1.5z" fill="#E6E6E6"/><path d="M16.4 7c.3 0 .6-.4.6-1 0-.5-.3-1-.6-1-.4 0-.7.5-.7 1 0 .6.3 1 .7 1z" fill="#000100"/><path d="M18 8.2c.5.8-2.7 2.2-3.8 2.2-1.3 0-4.1-1.7-3.8-2.2.8-.8 2.4-2.2 3.7-2.2.9 0 3.7 1.7 4 2.2z" fill="#FE9A0F"/><path d="M18 8.2c-.2-.5-2.6-2-3.7-2.2v4.4c1.1 0 4.2-1.4 3.7-2.2z" fill="#E2810C"/><path d="M22.8 20.2c.6.9 1.4 1.8 2.4 2 .8.1 1.4.7 1.5 1.4v.3c.2.6.5 1.2 1 1.7.6.7.1 1.7-1 1.9l-7.9 1.3c-1.7.3-3-1.3-2.1-2.7l4.4-6c.4-.6 1.3-.5 1.7 0z" fill="#DD7F10"/><path d="M14.2 10c-1.1 0-2.3-.5-3.4-1.4l.4-.4c1.1 1 2.3 1.4 3.3 1.3A3.7 3.7 0 0017 8.2l.5.3a4.3 4.3 0 01-3.2 1.5z" fill="#AE4E32"/><path d="M14.5 9.5h-.2v.5h.3a4.3 4.3 0 002.8-1.5l-.5-.3s-.9 1.2-2.4 1.3z" fill="#9E402B"/><path d="M23.9 23.5c1.4 0 2.5-1 2.5-2.3 0-1.2-1.1-2.2-2.5-2.2s-2.6 1-2.6 2.2c0 1.3 1.2 2.3 2.6 2.3z" fill="#000"/><path d="M6.6 18.8s2.7 2.9 4.7 3.6c2 .6-1 2.5-3.6 1-2.6-1.4-1.1-4.6-1.1-4.6z" fill="#333"/><path d="M5.1 20.2c-.5.9-1.4 1.8-2.4 2-.8.1-1.4.7-1.5 1.4a3.4 3.4 0 01-.9 2c-.6.7-.2 1.7.8 1.9l8 1.3c1.8.3 3-1.3 2.2-2.7l-4.5-6c-.4-.6-1.3-.5-1.7 0z" fill="#FE9B0E"/></svg><svg fill="none" viewBox="0 0 166 59" id="logo"><path fill-rule="evenodd" clip-rule="evenodd" d="M42.8 48.7l-.8-5.3-.9-5.3 3 2.5A18.6 18.6 0 0042.6 19l-.8-1c-2.1-2.4-4.7-4.2-7.5-5.3l4.1-5-2.4-3a27.4 27.4 0 0114 41l3.4 2.8-5.4.1h-5.3z" fill="#fff"/><path fill-rule="evenodd" clip-rule="evenodd" d="M1.2 34.1a27.3 27.3 0 0113-26.9c4.8-2.8 10-4 15.2-3.8L29.3 0l3.4 3.9 3.4 3.8-3.2 3.8-3.3 3.8v-3.5A19.2 19.2 0 008.6 33L2 31.9l-.8 2.2z" fill="#28619B"/><path fill-rule="evenodd" clip-rule="evenodd" d="M4.8 44.6l-1.4-2.8-3.2 1.9 1.5-5 1.5-5 5 1 4.8 1-3.1 2 1.1 2.4a19.3 19.3 0 0026.4 7.4l1.9-1.2 1.5 4.8 4.7.4a27.2 27.2 0 01-40.8-6.9z" fill="#E31E24"/><path d="M99 48.7H89L79.7 35h-3v13.8h-8.2V11.3h13.3c1.8 0 3.4.1 4.8.4 1.4.2 2.7.8 3.8 1.6a9 9 0 012.8 3.2c.7 1.4 1.1 3 1.1 5 0 3-.6 5.3-1.7 7a13.3 13.3 0 01-4.5 4.3l11 16zm-13.4-26c0-.9-.1-1.7-.5-2.4-.3-.6-.8-1.2-1.5-1.6l-1.8-.5h-5.1v10H79c1.2 0 2.2 0 3-.2.8-.2 1.5-.5 2-1 .6-.5 1-1 1.2-1.7.4-.7.4-1.5.4-2.5z" fill="#fff"/><path d="M132 48.9h-8.3l-13.1-27v27h-8V10.2h10.6l11 22.1V10.2h7.9v38.7z" fill="#28619B"/><path d="M149.6 49.5a24.8 24.8 0 01-12.5-2.9v-9.2h.8a17.7 17.7 0 0011.7 5h1.9c.8-.2 1.4-.4 1.9-.7.6-.2 1-.6 1.5-1.2.4-.6.6-1.3.6-2.1a3 3 0 00-1-2.4c-.7-.6-1.5-1-2.4-1.3l-3.8-1c-1.3-.4-2.6-.7-3.7-1.2-2.7-1-4.6-2.5-5.8-4.3a12 12 0 01-1.7-6.7c0-3.6 1.3-6.6 4-8.8 2.8-2.3 6.1-3.4 10.2-3.4a24.2 24.2 0 0111.5 2.6v8.8h-.7a15.7 15.7 0 00-10.4-4.3l-2 .1c-.6.1-1.2.4-1.9.7a4 4 0 00-1.4 1.3c-.4.5-.6 1.2-.6 1.8 0 1 .3 1.8 1 2.4a9 9 0 003.5 1.6l3.3.8 3.5 1.2c2.4 1 4.1 2.3 5.3 4 1.2 1.5 1.7 3.7 1.7 6.4 0 3.9-1.3 7-4 9.3-2.4 2.4-6 3.5-10.5 3.5z" fill="#E31E24"/></svg><svg viewBox="0 0 17 17" id="magnifying-glass"><g clip-path="url(#ayclip0)"><path d="M16.6 14.8l-3.5-3.5a7 7 0 00-.8-9.2A7.2 7.2 0 004.4.6 7.2 7.2 0 1011.3 13l3.5 3.5c.2.3.5.4.9.4.3 0 .7-.1 1-.4.2-.2.3-.6.3-1 0-.3-.1-.6-.4-.8zm-6.2-4.4c-.9 1-2 1.4-3.2 1.4-1.3 0-2.3-.5-3.2-1.4-1-.9-1.4-2-1.4-3.2 0-1.3.5-2.3 1.4-3.2.9-1 2-1.4 3.2-1.4 1.3 0 2.3.5 3.2 1.4 1 .9 1.4 2 1.4 3.2 0 1.3-.5 2.3-1.4 3.2z" fill="#fff"/></g><defs><clipPath id="ayclip0"><rect width="17" height="17" fill="#fff"/></clipPath></defs></svg><svg aria-hidden="true" data-prefix="fas" data-icon="map-marker-alt" class="azsvg-inline--fa azfa-map-marker-alt azfa-w-12" viewBox="0 0 384 512" id="map-marker"><path fill="currentColor" d="M172.3 501.7C27 291 0 269.4 0 192a192 192 0 11384 0c0 77.4-27 99-172.3 309.7a24 24 0 01-39.4 0zM192 272a80 80 0 100-160 80 80 0 000 160z"/></svg><svg fill="none" viewBox="0 0 53 34" id="mysql"><path d="M37.3 3.4s.7.7.9 1.2c0 0 .5-.3.1-1-.3-.5-1-.2-1-.2z" fill="#5181A2"/><path d="M51.3 13.6l-1.8-.6a2 2 0 01-1.5-1.1c-.3-.8-.8-2-1.8-3.7-2-3.5-4.3-4.5-5.7-5.4-1-.6-2.3-.7-3-.8-.4 0-.8 0-1-.3-.8-.6-2.3-1.2-2.8-1-.6.3 0 1 .8 2 .8.8 1 1.8 1.6 3.2.3.6.6 1 .9 1.2.3.2.4.6.2.9a6 6 0 00-.4 4c.3 1.5 1.2 1.5 1.2 1.5 0-2.1 1.2-3 1.2-3 1.1 3 3.8 5.4 3.8 5.4-2.2-.7-3.8-3.8-3.8-3.8l-.3 1.2c-.1 1-1.5 1.6-2.6-.6-1-2.2.3-5 .3-5-.5-.3-1.8-2.7-1.8-3.1 0-.4-.4-1.2-1-1.8-.6-.5-1.8-2-.4-2.6 1.3-.7 4 1.1 4 1.1 4.3-.1 8.6 4.4 9.3 6 .7 1.6 2.7 4.8 2.7 4.8l1.6.6.3.9zM52 17.7c-1.4-.6-2-1.8-2-1.8.4-.3 1-.5 1.7-.6l.2.8-.4.1.4.5.2 1z" fill="#5181A2"/><path d="M13 30.2h-2s0-4.1-.7-9l-3.2 9H5.4l-3.3-9s-.4 2.6-.4 7.8A21 21 0 010 24.6L.7 19h2.6l3.1 8.4 3.3-8.4H12s1 7.4 1 11.3zM14.2 22h2.2s2.4 6.2 2.1 7c0 0 1.6-3.8 2-7h2s-1 6.6-4.5 10c-1.2 1.4-2.7 1.4-4 1v-1s1.8.5 2.7-.7c.8-1 0-2.5-.6-4.2L14.2 22z" fill="#FFA600"/><path d="M23.9 29.4l.5-1s3.9 1.5 4.8 0c1-1.5 0-2.3-1.9-3.2-1.9-.9-4-2-3-4.4.8-2.5 5.5-2.3 6.9-1.1l-.5 1s-3.5-1.4-4.4.3c-1 1.7 1.6 2.5 2.2 2.7.6.3 3.8 1.5 3.5 3.5-.4 2.1-1.9 3.4-5.2 3.2a8.4 8.4 0 01-3-1zM41.1 29.5c1.5-1 2.1-2.8 2.1-4.9 0-3.2-1-5.8-5.2-5.8-3.5 0-5.2 2.6-5.2 5.8 0 3.2 1.2 5.8 5.2 5.8.6 0 1.1 0 1.6-.2l3 1.6.8-1.3-2.3-1zm-3-.5c-2.4 0-3-2-3-4.4 0-2.4.6-4.4 3-4.4 2.3 0 3 2 3 4.4 0 2.4-.7 4.4-3 4.4zM49.9 28.8l-.8 1.4h-4V19h2v9.8h2.8z" fill="#5181A2"/></svg><svg fill="none" viewBox="0 0 52 10" id="nginx"><path d="M10.3 1v7c0 .5-.4 1-1 1.2-.5.1-1 0-1.5-.4l-6.2-6v5.8c0 .4-.4.8-.9.9A19.8 19.8 0 01.4.2C1 0 1.6.2 2 .5l6.2 6V1c0-.5.5-1 1-1 .6 0 1.1.5 1.1 1zM38.4 9.5c-.6 0-1-.4-1-1V2.9l-6.3 6c-.4.4-1 .5-1.5.4-.6-.2-1-.7-1-1.2V1c0-.5.5-1 1-1 .7 0 1.1.5 1.1 1v5.5l6.2-6c.4-.4 1-.5 1.6-.3.6.2 1 .6 1 1.2v7.2c0 .5-.5.9-1.1.9zM27.3 1v2.4h-2.1V.9c0-.5.4-.9 1-.9s1 .4 1 1zM25.2 4.4h2v4.3c0 .5-.4 1-1 1s-1-.5-1-1V4.4zM51.2 2L48 4.8l-1.5 1.3L43 9c-.2.3-.5.3-.7.3-.3 0-.6 0-.8-.2a.8.8 0 010-1.3l3.6-3.1 1.4-1.3 3.6-3c.2-.3.6-.4.9-.3l.2 1.8z" fill="#009B00"/><path d="M51 7.5c0 .6-.2 1.3-.4 2l-.5-.3L46.5 6l-1.4-1.3-3.6-3a.8.8 0 010-1.4c.4-.3 1.1-.3 1.5 0l8 7zM21.3 4.7h-3.9c-.6 0-1 .4-1 1 0 .4.4.9 1 .9h2.7l-.6.8H16L14 4.7l1.8-2.8h3.6l1 1.5H23L20.8 0h-6.2l-3 4.7 3 4.6h6.2l3-4.6h-2.5z" fill="#009B00"/></svg><svg aria-hidden="true" data-prefix="fas" data-icon="phone-volume" class="bcsvg-inline--fa bcfa-phone-volume bcfa-w-12" viewBox="0 0 384 512" id="phone"><path fill="currentColor" d="M97.3 507a332.3 332.3 0 010-470 17.2 17.2 0 0121.3-2.4l64.8 40.5a17.2 17.2 0 016.9 21l-32.4 81a17.2 17.2 0 01-17.7 10.7l-55.8-5.6a265.6 265.6 0 000 179.6l55.8-5.6a17.2 17.2 0 0117.7 10.7l32.4 81a17.2 17.2 0 01-6.9 21l-64.8 40.5a17.2 17.2 0 01-21.3-2.4zM247.1 95.5a64 64 0 010 65 12 12 0 01-18.7 2.6l-6-5.7a12 12 0 01-2.2-14.4 32 32 0 000-30 12 12 0 012.2-14.4l6-5.7a12 12 0 0118.7 2.6zM339 4.3a192.3 192.3 0 010 247.4 12 12 0 01-17.5 1l-5.8-5.6a12 12 0 01-1-16.4 160.2 160.2 0 000-205.4 12 12 0 011-16.4l5.8-5.5a12 12 0 0117.5.9zm-46 45a128.2 128.2 0 010 157.5 12 12 0 01-17.8 1.3l-5.8-5.6a12 12 0 01-1.3-16 96.1 96.1 0 000-117 12 12 0 011.3-16l5.8-5.6a12 12 0 0117.8 1.3z"/></svg><svg fill="none" viewBox="0 0 39 18" id="php"><path d="M9.3 3.7H2.1L0 13.4a16 16 0 002 4h.6l.8-3.7h4c4.8 0 6.1-3.8 6.4-5.7.4-1.8-1.2-4.3-4.5-4.3zm1 4.6c-.1 1.1-1 3.3-3.8 3.3H4L5 5.9h2.7c2.7 0 2.7 1.4 2.6 2.4zM37.9 4.1c-.6-.3-1.4-.4-2.2-.4h-7.3l-2.9 13.8H29l.8-3.8h4c2.1 0 3.6-.8 4.5-1.8a15.2 15.2 0 00-.4-7.8zm-1.2 4.2c-.1 1.1-1 3.3-3.8 3.3h-2.7l1.2-5.7h2.8c2.6 0 2.7 1.4 2.5 2.4zM23 3.7H19l.8-3.7h-3.5l-2.9 13.8h3.4l1.7-8h2.2c1.5 0 2.5.3 2.3 1.5l-1.4 6.4h3.4s1.4-5.8 1.6-7.4c.2-1.7-1.5-2.6-3.4-2.6z" fill="#3D9AE2"/></svg><svg viewBox="0 0 1177 840" id="substrate"/><svg viewBox="0 0 457.6 264.2" id="tab-content-bubble"><path d="M30.7 31.2C47-3 103.7 10.9 141.4 6.2c60-7.5 181.5 0 181.5 0S419.2-4 435.7 30.7c27.6 57.8 16.3 112 1.4 172.8-9 36.5-53.6 58-96.7 55.1-64.5-4.3-133 3.7-198.2-.4C42.2 251.9 32 274.5 18.5 235A269 269 0 0130.7 31.2z" fill="#fff"/></svg><svg viewBox="0 0 457.6 264.2" id="tab-content-bubble-hover"><path d="M30.7 31.2C47-3 103.7 10.9 141.4 6.2c60-7.5 181.5 0 181.5 0S419.2-4 435.7 30.7c27.6 57.8 16.3 112 1.4 172.8-9 36.5-53.6 58-96.7 55.1-64.5-4.3-133 3.7-198.2-.4C42.2 251.9 32 274.5 18.5 235A269 269 0 0130.7 31.2z" fill="#e31e24"/></svg><svg aria-hidden="true" data-prefix="fas" data-icon="user-friends" class="bhsvg-inline--fa bhfa-user-friends bhfa-w-20" viewBox="0 0 640 512" id="users"><path fill="currentColor" d="M192 256a112 112 0 10.1-223.9A112 112 0 00192 256zm76.8 32h-8.3c-20.8 10-43.9 16-68.5 16s-47.6-6-68.5-16h-8.3A115.2 115.2 0 000 403.2V432a48 48 0 0048 48h288a48 48 0 0048-48v-28.8c0-63.6-51.6-115.2-115.2-115.2zM480 256a96 96 0 100-192 96 96 0 000 192zm48 32h-3.8c-13.9 4.8-28.6 8-44.2 8s-30.3-3.2-44.2-8H432a111 111 0 00-55.7 15.4 146.3 146.3 0 0139.7 99.8v38.4c0 2.2-.5 4.3-.6 6.4H592a48 48 0 0048-48 112 112 0 00-112-112z"/></svg><svg aria-hidden="true" data-prefix="fab" data-icon="vk" viewBox="0 0 576 512" id="vk"><path d="M545 117.7c3.7-12.5 0-21.7-17.8-21.7h-58.9c-15 0-21.9 7.9-25.6 16.7 0 0-30 73.1-72.4 120.5-13.7 13.7-20 18.1-27.5 18.1-3.7 0-9.4-4.4-9.4-16.9V117.7c0-15-4.2-21.7-16.6-21.7h-92.6c-9.4 0-15 7-15 13.5 0 14.2 21.2 17.5 23.4 57.5v86.8c0 19-3.4 22.5-10.9 22.5-20 0-68.6-73.4-97.4-157.4-5.8-16.3-11.5-22.9-26.6-22.9H38.8c-16.8 0-20.2 7.9-20.2 16.7 0 15.6 20 93.1 93.1 195.5C160.4 378.1 229 416 291.4 416c37.5 0 42.1-8.4 42.1-22.9 0-66.8-3.4-73.1 15.4-73.1 8.7 0 23.7 4.4 58.7 38.1 40 40 46.6 57.9 69 57.9h58.9c16.8 0 25.3-8.4 20.4-25-11.2-34.9-86.9-106.7-90.3-111.5-8.7-11.2-6.2-16.2 0-26.2.1-.1 72-101.3 79.4-135.6z"/></svg><svg aria-hidden="true" data-prefix="fas" data-icon="wifi" class="bjsvg-inline--fa bjfa-wifi bjfa-w-20" viewBox="0 0 640 512" id="wifi"><path fill="currentColor" d="M635 154.9a465 465 0 00-630 0 15.9 15.9 0 00-.3 23l34.3 34c6.1 6 16 6.2 22.4.3a383.7 383.7 0 01517.2 0 16.2 16.2 0 0022.4-.4l34.3-34a15.9 15.9 0 00-.4-23zM320 352a64 64 0 100 128 64 64 0 000-128zm202.7-83.6a307 307 0 00-405.4 0 15.8 15.8 0 00-.5 23.2l34.4 34c6 5.9 15.7 6.3 22 .7a225.2 225.2 0 01293.5 0c6.4 5.6 16 5.2 22-.8l34.5-34c6.6-6.4 6.4-17-.5-23z"/></svg><svg fill="none" viewBox="0 0 33 33" id="windows"><g clip-path="url(#bkclip0)"><path d="M13 3.2L.6 4.8c-.3 0-.6.4-.6.7v9.6c0 .4.3.7.7.7H13c.3 0 .6-.3.6-.7V4a.7.7 0 00-.7-.7z" fill="#F44336"/><path d="M32.8.9a.7.7 0 00-.6-.2L15.7 2.8c-.3 0-.6.4-.6.7v11.6c0 .4.3.7.7.7h16.5c.4 0 .7-.3.7-.7V1.4c0-.2 0-.4-.2-.5z" fill="#4CAF50"/><path d="M13 17.2H.8c-.4 0-.7.3-.7.7v9.6c0 .3.3.6.6.7L13 29.8c.4 0 .7-.3.7-.7V18c0-.4-.3-.7-.6-.7z" fill="#2196F3"/><path d="M32.3 17.2H15.8c-.4 0-.7.3-.7.7v11.6c0 .3.3.6.6.7l16.5 2.1h.1c.4 0 .7-.3.7-.7V18c0-.4-.3-.7-.7-.7z" fill="#FFC107"/></g><defs><clipPath id="bkclip0"><rect width="33" height="33" fill="#fff"/></clipPath></defs></svg><svg viewBox="0 0 20 14" id="youtube"><path d="M19.6 5.4a21.5 21.5 0 00-.3-3.1c-.2-.6-.4-1-.8-1.4-.4-.4-.8-.6-1.4-.6A71.8 71.8 0 002.5.3c-.6 0-1 .2-1.4.6-.4.4-.6.8-.8 1.4a12.1 12.1 0 00-.3 3 93.1 93.1 0 00.3 6.4c.2.6.4 1 .8 1.4.4.4.8.6 1.4.6a71.7 71.7 0 0014.6 0c.6 0 1-.2 1.4-.6.4-.4.6-.8.7-1.4a12.1 12.1 0 00.4-3 94.2 94.2 0 000-3.3zm-6 2.2L8.2 11l-.4.1h-.3a.7.7 0 01-.4-.7v-7c0-.3.1-.5.4-.6H8l5.6 3.5c.2.1.3.3.3.6s-.1.5-.3.6z" fill="#fff"/></svg></svg>